<?xml version="1.0" encoding="UTF-8"?>
<svg id="Layer_1" data-name="Layer 1" xmlns="http://www.w3.org/2000/svg" viewBox="0 0 377.09 56.96">
  <defs>
    <style>
      .cls-1 {
        letter-spacing: -.01em;
      }

      .cls-2 {
        letter-spacing: 0em;
      }

      .cls-3 {
        letter-spacing: -.02em;
      }

      .cls-4 {
        fill: #161344;
        font-family: Graphik-Bold, Graphik;
        font-size: 55px;
        font-weight: 700;
      }

      .cls-5 {
        letter-spacing: -.03em;
      }

      .cls-6 {
        letter-spacing: 0em;
      }

      .cls-7 {
        fill: #8aa8d5;
        fill-rule: evenodd;
      }
    </style>
  </defs>
  <text class="cls-4" transform="translate(4.33 50.62)"><tspan x="0" y="0">D</tspan></text>
  <text class="cls-4" transform="translate(75.05 48.13)"><tspan class="cls-6" x="0" y="0">s</tspan><tspan class="cls-2" x="28.49" y="0">c</tspan><tspan class="cls-3" x="60.55" y="0">o</tspan><tspan class="cls-5" x="93.39" y="0">v</tspan><tspan x="124.46" y="0">e</tspan><tspan class="cls-1" x="157.35" y="0">r</tspan><tspan x="180.23" y="0">able</tspan></text>
  <g>
    <path class="cls-7" d="m58.52,5.06c-2.41.34-4.84,1.54-6.55,3.23-2.41,2.37-3.54,5.08-3.54,8.51,0,3.12,1.17,5.92,3.4,8.15,1.68,1.68,3.64,2.74,5.97,3.22l1.14.24.04,2.5.03,2.49-.35.28c-.78.62-.78.56-.78,7.37,0,5.7.03,6.33.25,6.78.35.73,1.02,1.02,2.2.96.9-.06.99-.08,1.44-.58l.48-.52v-2.85c0-1.58.01-4.42.01-6.33v-3.8c-.01-.18-.24-.55-.54-.85l-.52-.51v-2.37c-.03-1.54.01-2.41.11-2.49.08-.07.41-.17.72-.23,1.51-.25,3.77-1.21,5-2.1.8-.59,2.22-2.06,2.8-2.91,3.02-4.46,2.56-10.53-1.1-14.47-1.68-1.79-3.39-2.84-5.66-3.46-1.17-.31-3.32-.44-4.56-.27Zm3.95,2.44c2.6.69,4.91,2.57,6.11,4.96.62,1.24.88,2.23.97,3.74.27,4.42-2.81,8.57-7.17,9.69-1.07.28-3.11.31-4.29.07-.47-.1-1.45-.47-2.19-.83-2.47-1.21-4.39-3.59-5.01-6.24-.27-1.17-.27-3.21.01-4.38.73-3.13,3.23-5.82,6.34-6.83,1.61-.52,3.69-.59,5.22-.17Z"/>
    <path class="cls-7" d="m65.65,11.69c0,.1.23.44.49.78,1.16,1.41,1.65,3.36,1.28,5.1-.23,1.13-.73,2.2-1.36,2.91-.45.52-.52.73-.27.89.47.28,1.86-1.92,2.19-3.5.42-2.02.01-3.88-1.26-5.59-.51-.68-1.09-.99-1.09-.58Z"/>
  </g>
</svg>