<svg xmlns="http://www.w3.org/2000/svg" xmlns:xlink="http://www.w3.org/1999/xlink" width="612" height="400" viewBox="0 0 612 400">
    <defs>
        <path id="s7v175i46a" d="M0 0H612V400H0z"/>
    </defs>
    <g fill="none" fill-rule="evenodd">
        <mask id="voic7pwgcb" fill="#fff">
            <use xlink:href="#s7v175i46a"/>
        </mask>
        <use fill="#000" xlink:href="#s7v175i46a"/>
        <path fill="#FFF" d="M173.26 218.606c0 1.224-.415 2.26-1.239 3.108-.824.848-1.813 1.275-2.963 1.275-1.19 0-2.2-.427-3.024-1.275-.825-.848-1.237-1.884-1.237-3.108 0-1.185.412-2.2 1.237-3.05.824-.848 1.834-1.273 3.024-1.273 1.15 0 2.139.425 2.963 1.273.824.85 1.24 1.865 1.24 3.05zm-.157-12.246l-6.126 2.794c-.192-1.029-.722-2.02-1.589-2.972-.866-.95-2.032-1.643-3.496-2.08l-6.761-2.14c-1.387-.434-2.64-1.03-3.756-1.782-1.117-.752-2.072-1.634-2.86-2.645-.79-1.01-1.408-2.12-1.85-3.33-.444-1.207-.665-2.466-.665-3.773 0-2.259.376-4.22 1.128-5.885.75-1.663 1.742-3.06 2.975-4.19 1.232-1.129 2.638-1.97 4.219-2.526 1.58-.554 3.197-.831 4.854-.831 1.54 0 3.092.257 4.652.771 1.56.517 2.976 1.319 4.248 2.408 1.27 1.09 2.359 2.477 3.265 4.161.905 1.684 1.493 3.675 1.762 5.973l-6.01.772c-.193-1.345-.54-2.525-1.04-3.536-.5-1.01-1.117-1.832-1.85-2.466-.731-.634-1.531-1.11-2.397-1.427-.867-.317-1.763-.475-2.687-.475-.849 0-1.669.139-2.458.416-.789.278-1.483.704-2.08 1.277-.597.576-1.078 1.308-1.444 2.2-.366.891-.548 1.952-.548 3.18 0 1.188.423 2.288 1.27 3.298.848 1.01 1.965 1.734 3.351 2.17l7.282 2.318c2.234.674 4.093 1.744 5.577 3.21 1.483 1.466 2.494 3.17 3.034 5.11zm113.55 0l-6.127 2.794c-.193-1.029-.723-2.02-1.588-2.972-.868-.95-2.034-1.643-3.498-2.08l-6.761-2.14c-1.387-.434-2.64-1.03-3.756-1.782-1.118-.752-2.071-1.634-2.86-2.645-.792-1.01-1.407-2.12-1.85-3.33-.443-1.207-.665-2.466-.665-3.773 0-2.259.377-4.22 1.128-5.885.75-1.663 1.742-3.06 2.975-4.19 1.234-1.129 2.638-1.97 4.219-2.526 1.579-.554 3.198-.831 4.854-.831 1.541 0 3.092.257 4.652.771 1.562.517 2.977 1.319 4.247 2.408 1.273 1.09 2.36 2.477 3.266 4.161.904 1.684 1.492 3.675 1.763 5.973l-6.01.772c-.194-1.345-.541-2.525-1.041-3.536-.502-1.01-1.117-1.832-1.848-2.466-.733-.634-1.532-1.11-2.4-1.427-.866-.317-1.762-.475-2.687-.475-.847 0-1.666.139-2.455.416-.79.278-1.483.704-2.081 1.277-.598.576-1.079 1.308-1.445 2.2-.366.891-.549 1.952-.549 3.18 0 1.188.424 2.288 1.273 3.298.846 1.01 1.964 1.734 3.35 2.17l7.283 2.318c2.234.674 4.092 1.744 5.575 3.21 1.483 1.466 2.494 3.17 3.035 5.11zm.152 12.246c0 1.224-.416 2.26-1.239 3.108-.826.848-1.815 1.275-2.964 1.275-1.19 0-2.2-.427-3.024-1.275-.826-.848-1.237-1.884-1.237-3.108 0-1.185.411-2.2 1.237-3.05.824-.848 1.834-1.273 3.024-1.273 1.15 0 2.138.425 2.964 1.273.823.85 1.24 1.865 1.24 3.05zm84.843-13.797H354.42l10.302-27.584h-6.632l-17.584 45.731h7.164l4.381-11.813h19.559l.038-6.334zm-43.14 8.6c-.214.189-.428.382-.656.558-2.643 2.028-5.617 3.04-8.928 3.04-2.158 0-4.184-.438-6.083-1.32-1.896-.878-3.552-2.065-4.966-3.557-1.413-1.492-2.53-3.25-3.346-5.28-.82-2.026-1.228-4.188-1.228-6.485 0-2.295.408-4.456 1.228-6.483.816-2.028 1.933-3.797 3.346-5.31 5.062-5.262 11.131-4.782 11.131-4.782v-6.01c-9.195-.331-15.169 6.15-15.169 6.15l.015.018c-.155.145-.318.282-.467.436-1.99 2.046-3.563 4.438-4.716 7.173-1.153 2.735-1.73 5.672-1.73 8.808 0 3.1.577 6.027 1.73 8.782 1.153 2.754 2.725 5.155 4.716 7.2 1.989 2.05 4.324 3.665 7.001 4.85 2.678 1.186 5.524 1.78 8.538 1.78 2.267 0 4.464-.345 6.583-1.034 2.12-.688 4.075-1.682 5.86-2.983.669-.488 1.3-1.033 1.915-1.603l-4.773-3.949zm-75.024-36.116l-17.27 26.644v19.04h-6.743v-20.865l16.147-24.819h7.866zm-36.714 15.132c-.235 1.577-.716 3.033-1.445 4.368-.727 1.335-1.64 2.487-2.742 3.458-1.102.97-2.36 1.739-3.775 2.305-1.416.567-2.91.849-4.481.849h-9.32V223h-6.725v-45.56h6.725v19.656h9.32c1.374 0 2.573-.435 3.597-1.304 1.022-.869 1.69-1.992 2.004-3.367 0 0 .294-1.305.408-2.697h6.726s-.017.797-.292 2.697zm197.986 0c-.237 1.577-.72 3.033-1.445 4.368-.73 1.335-1.644 2.487-2.744 3.458-1.102.97-2.359 1.739-3.775 2.305-1.416.567-2.91.849-4.483.849h-9.32V223h-6.723v-45.56h6.724v19.656h9.32c1.375 0 2.574-.435 3.598-1.304 1.023-.869 1.69-1.992 2.005-3.367 0 0 .294-1.305.407-2.697h6.727s-.02.797-.291 2.697zm18.565-.606v4.756h14.535V203H433.32v13.531h19.34v6.425h-26.189v-33.274h6.849v2.137zm28.352-10.395c0-.115-.017-.22-.052-.318-.033-.096-.08-.18-.142-.25-.061-.07-.136-.125-.224-.164-.087-.039-.184-.057-.29-.057h-1.018v1.578h1.018c.106 0 .203-.019.29-.058.088-.038.163-.093.224-.162s.109-.152.142-.25c.035-.096.052-.203.052-.319zm1.536 3.904h-1.013l-1.916-2.35h-.333v2.35h-.807v-5.458h1.825c.208 0 .403.041.586.123.183.083.343.194.481.335.138.142.247.306.328.493.079.188.12.39.12.603 0 .188-.032.368-.092.538-.061.17-.147.321-.255.457-.108.135-.237.247-.386.34-.148.093-.309.155-.485.19l1.947 2.379zm-2.402-7.483c-2.62 0-4.75 2.19-4.75 4.886 0 2.693 2.13 4.886 4.75 4.886s4.751-2.193 4.751-4.886c0-2.695-2.13-4.886-4.75-4.886zm0 10.225c-2.862 0-5.19-2.395-5.19-5.34 0-2.943 2.328-5.339 5.19-5.339 2.864 0 5.193 2.396 5.193 5.34s-2.33 5.34-5.193 5.34z" mask="url(#voic7pwgcb)"/>
    </g>
</svg>
