<?xml version="1.0" encoding="UTF-8"?>
<svg id="Layer_1" data-name="Layer 1" xmlns="http://www.w3.org/2000/svg" viewBox="0 0 94.05 99.75">
  <defs>
    <style>
      .cls-1 {
        fill: #306fa2;
        stroke-width: 0px;
      }
    </style>
  </defs>
  <path class="cls-1" d="m19.76,3.17c-1.75,0-3.61.37-5.46,1.06-1.43.59-2.49,1.17-3.29,1.8,1.59-.37,2.97-.53,4.19-.53h.27c2.86,0,5.52.9,7.9,2.65.69.48,1.8,1.54,3.29,3.23l8.27,10.92,26.03,34.52c10.24,13.62,15.75,20.94,16.54,21.95.32.53,1.11,1.43,2.44,2.71,2.12,1.86,4.29,2.81,6.47,2.81s3.98-.9,5.73-2.65c1.27-1.53,1.91-2.91,1.91-4.19V18.6c0-4.03-1.54-7.64-4.56-10.87-3.24-3.02-6.9-4.56-10.87-4.56h-.37c-2.17,0-4.29.48-6.41,1.48-3.66,1.75-6.31,4.51-7.85,8.22-.8,1.64-1.17,3.98-1.17,6.95v29.85l-11.24-14.9-19.09-25.34c-.58-.9-1.54-1.86-2.86-2.92-2.97-2.23-6.1-3.34-9.44-3.34h-.43Zm47.5,7.11c0-2.72.85-5.06,2.6-7.02,2.07-2.18,4.45-3.26,7.21-3.26,2.6,0,4.88.98,6.89,2.94,1.01,1.09,1.7,2.17,2.12,3.21.53,1.09.8,2.78.8,5v57.6c-.48,1.47-1.27,2.18-2.39,2.18-.32,0-.58-.06-.85-.11-.32,0-.9-.44-1.7-1.25-1.32-1.58-2.01-2.5-2.01-2.67V9.84c0-.43-.05-.81-.22-1.19-.63-1.14-1.53-1.74-2.65-1.74-.48,0-.9.11-1.38.33-.37.22-.64.43-.8.65-.48.43-.74,1.31-.74,2.61v48.57h-.05c-.69-1.03-2.97-4.13-6.84-9.36V10.28Zm-55.14-1.9c-3.13,0-5.78,1.11-7.95,3.29-1.27,1.54-1.91,2.65-1.91,3.34l.05.11c1.86-1.33,3.98-2.02,6.26-2.02,3.34,0,6.36,1.43,8.96,4.35.95,1.22,4.82,6.36,11.61,15.38,11.4,15.01,17.18,22.7,17.39,23.07.74.95,7.58,9.97,20.47,27.09,2.38,3.18,4.13,5.46,5.25,6.84,2.49,3.08,5.62,4.61,9.33,4.61,3.13,0,5.84-1.16,8.06-3.5,1.16-1.43,1.75-2.44,1.75-3.13l-.05-.1c-1.91,1.33-3.98,2.02-6.26,2.02-3.34,0-6.36-1.43-9.01-4.35l-11.56-15.32-19.36-25.61c-.9-1.27-8.27-11.03-22-29.27-.74-1.06-1.75-2.23-3.07-3.55-2.18-2.18-4.83-3.23-7.95-3.23h0Zm-4.44,10.24c-1.91,0-3.66.74-5.3,2.18-1.59,1.64-2.39,3.23-2.39,4.66v58.91c0,3.87,1.48,7.42,4.4,10.66,3.24,3.13,6.89,4.72,10.97,4.72h.43c2.76,0,5.41-.8,7.95-2.33,3.07-1.86,5.3-4.61,6.63-8.32.58-1.43.85-3.5.85-6.2v-29.64l8.01,10.6,19.62,25.98c1.86,2.54,3.18,4.29,4.03,5.25,3.23,3.13,6.94,4.67,11.13,4.67,3.34,0,6.31-.95,9.02-2.86-1.64.37-3.13.53-4.4.53-4.29,0-8.01-1.91-11.13-5.73l-8.33-10.98c-.74-1.01-7.26-9.7-19.56-25.98l-21.79-28.95c-3.34-4.77-6.68-7.16-10.13-7.16h0Zm-1.91,8.32c.48-1.43,1.22-2.12,2.33-2.12.37,0,.74.06,1.11.16.16,0,.48.21.95.69,1.01,1.01,1.86,2.02,2.49,2.97v55.46c0,.42.11.85.27,1.27.69,1.06,1.48,1.59,2.44,1.59h.32c.32,0,.64-.05,1.01-.16,1.22-.64,1.8-1.48,1.8-2.6v-47.83l5.83,7.74c.69.9,1.06,1.38,1.06,1.43v38.39c0,2.28-.69,4.35-2.01,6.15-2.17,2.6-4.77,3.87-7.79,3.87-.96,0-2.02-.16-3.13-.53-2.55-.9-4.45-2.6-5.68-4.98-.69-1.22-1-2.92-1-5.2V26.95Zm0,4"/>
</svg>