<?xml version="1.0" encoding="UTF-8"?>
<svg id="Layer_1" data-name="Layer 1" xmlns="http://www.w3.org/2000/svg" viewBox="0 0 192 192">
  <defs>
    <style>
      .cls-1 {
        fill: #161344;
        font-family: Graphik-Bold, Graphik;
        font-size: 169px;
        font-weight: 700;
      }

      .cls-2 {
        fill: #8aa8d5;
        fill-rule: evenodd;
      }
    </style>
  </defs>
    <style>
        @media (prefers-color-scheme: dark) {
            path { fill: #f0f0f0 }
        }
    </style>
    
  <text class="cls-1" transform="translate(-4.19 158.52)"><tspan x="0" y="0">D</tspan></text>
  <g>
    <path class="cls-2" d="m147.92,31.49c-7.43,1-14.91,4.53-20.17,9.53-7.43,6.99-10.91,14.98-10.91,25.08,0,9.19,3.61,17.43,10.48,24,5.17,4.95,11.22,8.07,18.39,9.48l3.52.71.13,7.36.09,7.32-1.09.83c-2.39,1.83-2.39,1.66-2.39,21.71,0,16.81.09,18.64.78,19.97,1.09,2.16,3.13,3,6.78,2.83,2.78-.17,3.04-.25,4.43-1.71l1.48-1.54v-8.4c0-4.66.04-13.02.04-18.64v-11.19c-.04-.54-.74-1.62-1.65-2.5l-1.61-1.5-.04-6.99c-.04-4.53.09-7.11.39-7.32.26-.21,1.26-.5,2.22-.67,4.65-.75,11.61-3.58,15.39-6.2,2.48-1.75,6.82-6.07,8.61-8.57,9.3-13.15,7.87-31.03-3.39-42.64-5.17-5.28-10.43-8.36-17.43-10.19-3.61-.92-10.22-1.29-14.04-.79Zm12.17,7.2c8,2.04,15.13,7.57,18.82,14.6,1.91,3.66,2.7,6.57,3,11.02.83,13.02-8.65,25.25-22.08,28.54-3.3.83-9.56.92-13.21.21-1.43-.29-4.48-1.37-6.74-2.45-7.61-3.58-13.52-10.57-15.43-18.39-.83-3.45-.83-9.44.04-12.9,2.26-9.24,9.95-17.14,19.52-20.13,4.96-1.54,11.35-1.75,16.08-.5Z"/>
    <path class="cls-2" d="m169.87,51.04c0,.29.7,1.29,1.52,2.29,3.56,4.16,5.09,9.9,3.96,15.02-.7,3.33-2.26,6.49-4.17,8.57-1.39,1.54-1.61,2.16-.83,2.62,1.43.83,5.74-5.66,6.74-10.32,1.3-5.95.04-11.44-3.87-16.47-1.56-2-3.35-2.91-3.35-1.71Z"/>
  </g>
</svg>