<?xml version="1.0" standalone="no"?>
<!DOCTYPE svg PUBLIC "-//W3C//DTD SVG 20010904//EN"
 "http://www.w3.org/TR/2001/REC-SVG-20010904/DTD/svg10.dtd">
<svg version="1.0" xmlns="http://www.w3.org/2000/svg"
 width="673.000000pt" height="505.000000pt" viewBox="0 0 673.000000 505.000000"
 preserveAspectRatio="xMidYMid meet">

<g transform="translate(0.000000,505.000000) scale(0.100000,-0.100000)"
fill="#000000" stroke="none">
<path d="M337 4900 c-12 -10 -19 -22 -14 -26 4 -4 14 1 22 12 11 15 17 17 32
8 26 -17 18 -53 -22 -94 -19 -20 -35 -39 -35 -43 0 -4 23 -7 50 -7 28 0 50 5
50 10 0 6 -17 10 -37 10 l-37 0 31 33 c37 39 46 63 33 86 -14 27 -47 32 -73
11z"/>
<path d="M1910 4836 c0 -51 4 -86 10 -86 6 0 10 12 10 28 l1 27 24 -27 c13
-16 30 -28 36 -28 7 0 0 13 -16 30 l-29 30 24 25 c30 32 18 46 -15 15 l-25
-23 0 41 c0 22 -4 44 -10 47 -6 4 -10 -25 -10 -79z"/>
<path d="M2240 4904 c0 -8 5 -12 10 -9 6 4 8 11 5 16 -9 14 -15 11 -15 -7z"/>
<path d="M2665 4910 c-42 -16 -60 -63 -43 -111 12 -34 35 -49 77 -49 19 0 35
8 45 22 22 30 13 34 -22 8 -25 -18 -33 -20 -51 -10 -63 33 -33 143 34 126 14
-4 25 -11 25 -16 0 -6 8 -10 17 -10 16 0 15 2 -2 19 -25 24 -54 32 -80 21z"/>
<path d="M2790 4836 c0 -91 17 -120 22 -38 3 43 5 47 28 47 23 0 25 -4 28 -47
4 -60 22 -63 22 -4 0 62 -36 96 -68 64 -9 -9 -12 -5 -12 19 0 18 -4 35 -10 38
-6 4 -10 -25 -10 -79z"/>
<path d="M3450 4836 c0 -51 4 -86 10 -86 6 0 10 33 10 79 0 44 -4 83 -10 86
-6 4 -10 -25 -10 -79z"/>
<path d="M1053 4903 c27 -4 27 -5 27 -79 0 -43 4 -74 10 -74 6 0 10 31 10 74
0 74 0 75 28 79 15 2 -2 4 -38 4 -36 0 -53 -2 -37 -4z"/>
<path d="M1500 4830 c0 -47 4 -80 10 -80 6 0 10 28 10 63 l1 62 15 -30 c9 -16
23 -41 31 -54 l15 -24 29 49 29 49 0 -57 c0 -32 5 -58 10 -58 6 0 10 33 10 80
0 46 -4 80 -10 80 -5 0 -21 -22 -35 -50 -14 -27 -29 -50 -33 -50 -5 0 -19 23
-32 50 -35 75 -50 66 -50 -30z"/>
<path d="M2150 4873 c-10 -12 -11 -18 -2 -21 7 -2 12 -22 12 -47 0 -30 5 -45
16 -49 23 -9 34 -7 34 4 0 6 -7 10 -15 10 -11 0 -15 11 -15 40 0 29 4 40 15
40 8 0 15 5 15 10 0 6 -7 10 -15 10 -8 0 -15 5 -15 10 0 15 -13 12 -30 -7z"/>
<path d="M205 4857 c-13 -10 -16 -21 -12 -39 4 -14 4 -28 0 -31 -11 -12 -12
-61 -1 -74 16 -19 75 -16 87 4 15 27 -5 53 -39 53 -17 0 -30 5 -30 10 0 6 11
10 24 10 27 0 41 14 50 53 6 25 4 27 -27 27 -18 0 -41 -6 -52 -13z m53 -28 c4
-19 -19 -31 -38 -19 -18 11 -4 42 17 38 10 -2 19 -10 21 -19z m-4 -82 c16 -12
16 -14 2 -26 -17 -15 -56 -6 -56 13 0 28 25 34 54 13z"/>
<path d="M524 4860 c-29 -12 -39 -56 -19 -86 18 -28 65 -33 85 -9 19 22 3 31
-18 11 -24 -21 -50 -12 -58 20 -11 42 34 72 64 42 6 -6 15 -8 19 -4 9 8 -24
36 -41 35 -6 0 -21 -4 -32 -9z"/>
<path d="M652 4854 c-43 -30 -20 -104 32 -104 52 0 76 75 34 104 -12 9 -27 16
-33 16 -6 0 -21 -7 -33 -16z m62 -20 c17 -45 -10 -82 -46 -63 -18 10 -25 58
-11 72 12 13 51 7 57 -9z"/>
<path d="M770 4808 c0 -70 18 -78 22 -10 3 43 5 47 28 47 23 0 25 -4 28 -47 2
-27 7 -48 12 -48 5 0 10 21 12 48 3 43 5 47 28 47 23 0 25 -4 28 -47 2 -27 7
-48 13 -48 16 0 10 87 -7 104 -18 19 -28 20 -55 6 -11 -6 -25 -7 -32 -3 -6 4
-27 8 -44 8 l-33 0 0 -57z"/>
<path d="M1172 4854 c-43 -30 -20 -104 32 -104 52 0 76 75 34 104 -12 9 -27
16 -33 16 -6 0 -21 -7 -33 -16z m62 -20 c17 -45 -10 -82 -46 -63 -18 10 -25
58 -11 72 12 13 51 7 57 -9z"/>
<path d="M1290 4787 c0 -51 4 -87 10 -87 6 0 10 12 10 28 0 25 3 27 37 27 31
0 40 5 50 27 25 50 -21 103 -67 78 -11 -6 -21 -5 -28 2 -9 9 -12 -9 -12 -75z
m92 37 c11 -23 10 -29 -11 -45 -28 -23 -61 -10 -61 24 0 49 53 64 72 21z"/>
<path d="M1714 4856 c-10 -8 -15 -18 -11 -22 4 -5 12 -2 16 5 10 15 43 11 49
-6 2 -8 -6 -13 -20 -13 -13 0 -33 -6 -44 -14 -31 -24 -7 -51 45 -51 l41 -1 0
48 c0 37 -4 50 -19 58 -26 13 -33 13 -57 -4z m56 -61 c0 -23 -35 -38 -50 -21
-9 11 -7 17 7 25 26 15 43 13 43 -4z"/>
<path d="M1827 4864 c-11 -11 -8 -114 3 -114 6 0 10 18 10 40 0 29 5 43 20 52
26 16 26 32 1 18 -13 -7 -20 -7 -23 1 -2 6 -7 7 -11 3z"/>
<path d="M2044 4860 c-29 -12 -39 -56 -19 -86 18 -28 65 -33 85 -9 15 18 -1
21 -30 5 -14 -7 -23 -6 -36 8 -17 16 -16 17 29 20 38 3 47 7 47 22 0 10 -10
26 -22 34 -25 18 -25 18 -54 6z m54 -27 c2 -9 -8 -13 -33 -13 -33 0 -36 2 -25
15 15 18 51 16 58 -2z"/>
<path d="M2240 4811 c0 -34 4 -61 10 -61 6 0 10 24 10 54 0 30 -4 58 -10 61
-6 4 -10 -17 -10 -54z"/>
<path d="M2297 4864 c-11 -11 -8 -114 3 -114 6 0 10 17 10 38 0 41 14 62 42
62 12 0 19 -11 23 -37 11 -67 13 -69 14 -17 1 62 -16 83 -54 66 -16 -7 -25 -8
-27 -1 -2 6 -7 7 -11 3z"/>
<path d="M2447 4859 c-11 -7 -18 -21 -17 -37 1 -15 1 -29 0 -32 -8 -23 -7 -67
2 -77 23 -28 88 -12 88 22 0 23 -17 35 -51 35 -10 0 -19 5 -19 10 0 6 11 10
25 10 25 0 51 32 40 50 -3 6 -1 10 4 10 6 0 11 5 11 10 0 13 -60 12 -83 -1z
m49 -20 c8 -14 -21 -43 -35 -35 -6 4 -11 16 -11 27 0 21 34 27 46 8z m3 -95
c8 -7 -9 -34 -21 -34 -24 0 -41 18 -35 35 5 12 13 14 29 9 13 -3 25 -8 27 -10z"/>
<path d="M2934 4856 c-10 -8 -16 -18 -11 -22 4 -4 13 -2 19 4 17 17 45 15 52
-3 4 -11 -2 -15 -22 -15 -38 0 -54 -13 -50 -41 3 -27 40 -38 64 -19 10 9 14 9
14 1 0 -6 5 -11 11 -11 15 0 6 84 -11 105 -16 19 -40 19 -66 1z m56 -60 c0
-18 -27 -39 -40 -31 -16 10 -12 33 8 38 29 8 32 7 32 -7z"/>
<path d="M3050 4813 c0 -73 17 -85 22 -15 3 43 5 47 28 47 23 0 25 -4 28 -47
4 -60 22 -63 22 -4 0 62 -31 91 -70 66 -9 -6 -17 -5 -22 3 -4 7 -8 -16 -8 -50z"/>
<path d="M3187 4864 c-11 -11 -8 -114 3 -114 6 0 10 17 10 38 0 41 14 62 42
62 12 0 19 -11 23 -37 11 -67 13 -69 14 -17 1 62 -16 83 -54 66 -16 -7 -25 -8
-27 -1 -2 6 -7 7 -11 3z"/>
<path d="M3330 4850 c-50 -50 10 -128 70 -90 20 13 5 24 -16 12 -12 -7 -25 -7
-36 -1 -31 17 -20 29 27 29 38 0 45 3 45 19 0 20 -35 51 -57 51 -7 0 -22 -9
-33 -20z m68 -17 c2 -9 -8 -13 -32 -13 -34 0 -44 8 -29 24 11 11 56 2 61 -11z"/>
<path d="M3512 4858 c-21 -21 -13 -39 24 -54 30 -12 34 -17 23 -30 -10 -13
-15 -13 -36 2 -23 15 -25 14 -21 -3 4 -23 60 -30 77 -10 16 21 4 44 -30 56
-16 5 -29 15 -29 20 0 15 33 14 48 -1 7 -7 12 -8 12 -2 0 15 -22 34 -40 34 -9
0 -21 -5 -28 -12z"/>
<path d="M450 4760 c0 -5 5 -10 10 -10 6 0 10 5 10 10 0 6 -4 10 -10 10 -5 0
-10 -4 -10 -10z"/>
<path d="M193 4573 c9 -2 25 -2 35 0 9 3 1 5 -18 5 -19 0 -27 -2 -17 -5z"/>
<path d="M3443 4530 c0 -30 2 -43 4 -27 2 15 2 39 0 55 -2 15 -4 2 -4 -28z"/>
<path d="M4078 4534 c-2 -25 0 -48 4 -50 5 -3 8 18 8 45 0 64 -7 66 -12 5z"/>
<path d="M4523 4573 c9 -2 23 -2 30 0 6 3 -1 5 -18 5 -16 0 -22 -2 -12 -5z"/>
<path d="M5118 4534 c-2 -25 0 -48 4 -50 5 -3 8 18 8 45 0 64 -7 66 -12 5z"/>
<path d="M3753 4525 c0 -27 2 -38 4 -22 2 15 2 37 0 50 -2 12 -4 0 -4 -28z"/>
<path d="M4983 4525 c0 -27 2 -38 4 -22 2 15 2 37 0 50 -2 12 -4 0 -4 -28z"/>
<path d="M742 4530 c0 -19 2 -27 5 -17 2 9 2 25 0 35 -3 9 -5 1 -5 -18z"/>
<path d="M1667 4553 c-2 -5 0 -21 4 -38 7 -29 7 -29 8 8 1 35 -3 46 -12 30z"/>
<path d="M1845 4539 c-4 -6 -5 -12 -2 -15 2 -3 7 2 10 11 7 17 1 20 -8 4z"/>
<path d="M1875 4540 c3 -5 8 -10 11 -10 2 0 4 5 4 10 0 6 -5 10 -11 10 -5 0
-7 -4 -4 -10z"/>
<path d="M2240 4536 c7 -7 13 -7 20 0 6 6 3 10 -10 10 -13 0 -16 -4 -10 -10z"/>
<path d="M3843 4515 c0 -22 2 -30 4 -17 2 12 2 30 0 40 -3 9 -5 -1 -4 -23z"/>
<path d="M4113 4515 c0 -22 2 -30 4 -17 2 12 2 30 0 40 -3 9 -5 -1 -4 -23z"/>
<path d="M792 4510 c0 -19 2 -27 5 -17 2 9 2 25 0 35 -3 9 -5 1 -5 -18z"/>
<path d="M1412 4510 c0 -19 2 -27 5 -17 2 9 2 25 0 35 -3 9 -5 1 -5 -18z"/>
<path d="M2622 4510 c0 -19 2 -27 5 -17 2 9 2 25 0 35 -3 9 -5 1 -5 -18z"/>
<path d="M2832 4510 c0 -19 2 -27 5 -17 2 9 2 25 0 35 -3 9 -5 1 -5 -18z"/>
<path d="M2882 4510 c0 -19 2 -27 5 -17 2 9 2 25 0 35 -3 9 -5 1 -5 -18z"/>
<path d="M3312 4510 c0 -19 2 -27 5 -17 2 9 2 25 0 35 -3 9 -5 1 -5 -18z"/>
<path d="M3492 4510 c0 -19 2 -27 5 -17 2 9 2 25 0 35 -3 9 -5 1 -5 -18z"/>
<path d="M4312 4510 c0 -19 2 -27 5 -17 2 9 2 25 0 35 -3 9 -5 1 -5 -18z"/>
<path d="M4362 4510 c0 -19 2 -27 5 -17 2 9 2 25 0 35 -3 9 -5 1 -5 -18z"/>
<path d="M892 4505 c0 -16 2 -22 5 -12 2 9 2 23 0 30 -3 6 -5 -1 -5 -18z"/>
<path d="M1241 4514 c0 -11 3 -14 6 -6 3 7 2 16 -1 19 -3 4 -6 -2 -5 -13z"/>
<path d="M1541 4514 c0 -11 3 -14 6 -6 3 7 2 16 -1 19 -3 4 -6 -2 -5 -13z"/>
<path d="M4021 4514 c0 -11 3 -14 6 -6 3 7 2 16 -1 19 -3 4 -6 -2 -5 -13z"/>
<path d="M5061 4514 c0 -11 3 -14 6 -6 3 7 2 16 -1 19 -3 4 -6 -2 -5 -13z"/>
<path d="M5151 4514 c0 -11 3 -14 6 -6 3 7 2 16 -1 19 -3 4 -6 -2 -5 -13z"/>
<path d="M5431 4514 c0 -11 3 -14 6 -6 3 7 2 16 -1 19 -3 4 -6 -2 -5 -13z"/>
<path d="M1206 4507 c3 -10 9 -15 12 -12 3 3 0 11 -7 18 -10 9 -11 8 -5 -6z"/>
<path d="M5335 4500 c10 -11 20 -20 23 -20 3 0 -3 9 -13 20 -10 11 -20 20 -23
20 -3 0 3 -9 13 -20z"/>
<path d="M840 4501 c0 -10 19 -25 25 -20 1 2 -3 10 -11 17 -8 7 -14 8 -14 3z"/>
<path d="M2750 4501 c0 -10 19 -25 25 -20 1 2 -3 10 -11 17 -8 7 -14 8 -14 3z"/>
<path d="M3230 4501 c0 -10 19 -25 25 -20 1 2 -3 10 -11 17 -8 7 -14 8 -14 3z"/>
<path d="M3670 4501 c0 -10 19 -25 25 -20 1 2 -3 10 -11 17 -8 7 -14 8 -14 3z"/>
<path d="M1337 4489 c7 -7 15 -10 18 -7 3 3 -2 9 -12 12 -14 6 -15 5 -6 -5z"/>
<path d="M2957 4489 c7 -7 15 -10 18 -7 3 3 -2 9 -12 12 -14 6 -15 5 -6 -5z"/>
<path d="M1738 4483 c7 -3 16 -2 19 1 4 3 -2 6 -13 5 -11 0 -14 -3 -6 -6z"/>
<path d="M1933 4483 c9 -2 25 -2 35 0 9 3 1 5 -18 5 -19 0 -27 -2 -17 -5z"/>
<path d="M3088 4483 c7 -3 16 -2 19 1 4 3 -2 6 -13 5 -11 0 -14 -3 -6 -6z"/>
<path d="M1193 4330 c0 -30 2 -43 4 -27 2 15 2 39 0 55 -2 15 -4 2 -4 -28z"/>
<path d="M1638 4373 c6 -2 18 -2 25 0 6 3 1 5 -13 5 -14 0 -19 -2 -12 -5z"/>
<path d="M2688 4334 c-2 -25 0 -48 4 -50 5 -3 8 18 8 45 0 64 -7 66 -12 5z"/>
<path d="M2963 4330 c0 -30 2 -43 4 -27 2 15 2 39 0 55 -2 15 -4 2 -4 -28z"/>
<path d="M3206 4367 c3 -10 9 -15 12 -12 3 3 0 11 -7 18 -10 9 -11 8 -5 -6z"/>
<path d="M4252 4373 c12 -3 18 -18 21 -51 l3 -47 2 47 c2 35 6 48 20 51 9 3
-1 5 -23 5 -22 0 -32 -2 -23 -5z"/>
<path d="M1686 4357 c3 -10 9 -15 12 -12 3 3 0 11 -7 18 -10 9 -11 8 -5 -6z"/>
<path d="M3131 4354 c0 -11 3 -14 6 -6 3 7 2 16 -1 19 -3 4 -6 -2 -5 -13z"/>
<path d="M3703 4325 c0 -27 2 -38 4 -22 2 15 2 37 0 50 -2 12 -4 0 -4 -28z"/>
<path d="M4023 4325 c0 -27 2 -38 4 -22 2 15 2 37 0 50 -2 12 -4 0 -4 -28z"/>
<path d="M752 4330 c0 -19 2 -27 5 -17 2 9 2 25 0 35 -3 9 -5 1 -5 -18z"/>
<path d="M1142 4330 c0 -19 2 -27 5 -17 2 9 2 25 0 35 -3 9 -5 1 -5 -18z"/>
<path d="M1977 4353 c-2 -5 0 -21 4 -38 7 -29 7 -29 8 8 1 35 -3 46 -12 30z"/>
<path d="M2912 4330 c0 -19 2 -27 5 -17 2 9 2 25 0 35 -3 9 -5 1 -5 -18z"/>
<path d="M3332 4335 c0 -16 2 -22 5 -12 2 9 2 23 0 30 -3 6 -5 -1 -5 -18z"/>
<path d="M3787 4353 c-2 -5 0 -21 4 -38 7 -29 7 -29 8 8 1 35 -3 46 -12 30z"/>
<path d="M4817 4353 c-2 -5 0 -21 4 -38 7 -29 7 -29 8 8 1 35 -3 46 -12 30z"/>
<path d="M263 4315 c0 -22 2 -30 4 -17 2 12 2 30 0 40 -3 9 -5 -1 -4 -23z"/>
<path d="M880 4336 c7 -7 13 -7 20 0 6 6 3 10 -10 10 -13 0 -16 -4 -10 -10z"/>
<path d="M1053 4315 c0 -22 2 -30 4 -17 2 12 2 30 0 40 -3 9 -5 -1 -4 -23z"/>
<path d="M1096 4337 c3 -10 9 -15 12 -12 3 3 0 11 -7 18 -10 9 -11 8 -5 -6z"/>
<path d="M2873 4315 c0 -22 2 -30 4 -17 2 12 2 30 0 40 -3 9 -5 -1 -4 -23z"/>
<path d="M3362 4330 c0 -14 2 -19 5 -12 2 6 2 18 0 25 -3 6 -5 1 -5 -13z"/>
<path d="M3432 4330 c0 -14 2 -19 5 -12 2 6 2 18 0 25 -3 6 -5 1 -5 -13z"/>
<path d="M1242 4310 c0 -19 2 -27 5 -17 2 9 2 25 0 35 -3 9 -5 1 -5 -18z"/>
<path d="M1762 4310 c0 -19 2 -27 5 -17 2 9 2 25 0 35 -3 9 -5 1 -5 -18z"/>
<path d="M2552 4310 c0 -19 2 -27 5 -17 2 9 2 25 0 35 -3 9 -5 1 -5 -18z"/>
<path d="M2602 4310 c0 -19 2 -27 5 -17 2 9 2 25 0 35 -3 9 -5 1 -5 -18z"/>
<path d="M3012 4310 c0 -19 2 -27 5 -17 2 9 2 25 0 35 -3 9 -5 1 -5 -18z"/>
<path d="M3842 4310 c0 -19 2 -27 5 -17 2 9 2 25 0 35 -3 9 -5 1 -5 -18z"/>
<path d="M4532 4310 c0 -19 2 -27 5 -17 2 9 2 25 0 35 -3 9 -5 1 -5 -18z"/>
<path d="M1021 4314 c0 -11 3 -14 6 -6 3 7 2 16 -1 19 -3 4 -6 -2 -5 -13z"/>
<path d="M1891 4314 c0 -11 3 -14 6 -6 3 7 2 16 -1 19 -3 4 -6 -2 -5 -13z"/>
<path d="M2631 4314 c0 -11 3 -14 6 -6 3 7 2 16 -1 19 -3 4 -6 -2 -5 -13z"/>
<path d="M3100 4305 l-23 -25 34 1 c25 1 28 3 11 6 -23 4 -23 5 -6 24 26 28
11 23 -16 -6z"/>
<path d="M3611 4314 c0 -11 3 -14 6 -6 3 7 2 16 -1 19 -3 4 -6 -2 -5 -13z"/>
<path d="M641 4304 c0 -11 3 -14 6 -6 3 7 2 16 -1 19 -3 4 -6 -2 -5 -13z"/>
<path d="M1381 4304 c0 -11 3 -14 6 -6 3 7 2 16 -1 19 -3 4 -6 -2 -5 -13z"/>
<path d="M1686 4303 c-6 -14 -5 -15 5 -6 7 7 10 15 7 18 -3 3 -9 -2 -12 -12z"/>
<path d="M2136 4307 c3 -10 9 -15 12 -12 3 3 0 11 -7 18 -10 9 -11 8 -5 -6z"/>
<path d="M3942 4300 c0 -14 2 -19 5 -12 2 6 2 18 0 25 -3 6 -5 1 -5 -13z"/>
<path d="M2825 4299 c-4 -6 -5 -12 -2 -15 2 -3 7 2 10 11 7 17 1 20 -8 4z"/>
<path d="M3890 4301 c0 -10 19 -25 25 -20 1 2 -3 10 -11 17 -8 7 -14 8 -14 3z"/>
<path d="M1638 4283 c7 -3 16 -2 19 1 4 3 -2 6 -13 5 -11 0 -14 -3 -6 -6z"/>
<path d="M2483 4283 c9 -2 25 -2 35 0 9 3 1 5 -18 5 -19 0 -27 -2 -17 -5z"/>
<path d="M1173 4130 c0 -30 2 -43 4 -27 2 15 2 39 0 55 -2 15 -4 2 -4 -28z"/>
<path d="M1790 4130 c0 -46 2 -50 23 -49 16 1 18 2 5 6 -13 3 -18 15 -18 43 0
28 5 40 18 43 13 4 11 5 -5 6 -21 1 -23 -3 -23 -49z"/>
<path d="M2093 4130 c0 -30 2 -43 4 -27 2 15 2 39 0 55 -2 15 -4 2 -4 -28z"/>
<path d="M2330 4130 c0 -46 2 -50 23 -49 16 1 18 2 5 6 -13 3 -18 15 -18 43 0
28 5 40 18 43 13 4 11 5 -5 6 -21 1 -23 -3 -23 -49z"/>
<path d="M2523 4130 c0 -30 2 -43 4 -27 2 15 2 39 0 55 -2 15 -4 2 -4 -28z"/>
<path d="M2553 4130 c0 -30 2 -43 4 -27 2 15 2 39 0 55 -2 15 -4 2 -4 -28z"/>
<path d="M2678 4134 c-2 -25 0 -48 4 -50 5 -3 8 18 8 45 0 64 -7 66 -12 5z"/>
<path d="M3373 4130 c0 -30 2 -43 4 -27 2 15 2 39 0 55 -2 15 -4 2 -4 -28z"/>
<path d="M4428 4134 c-2 -25 0 -48 4 -50 5 -3 8 18 8 45 0 64 -7 66 -12 5z"/>
<path d="M5263 4130 c0 -30 2 -43 4 -27 2 15 2 39 0 55 -2 15 -4 2 -4 -28z"/>
<path d="M662 4130 c0 -19 2 -27 5 -17 2 9 2 25 0 35 -3 9 -5 1 -5 -18z"/>
<path d="M182 4130 c0 -14 2 -19 5 -12 2 6 2 18 0 25 -3 6 -5 1 -5 -13z"/>
<path d="M523 4115 c0 -22 2 -30 4 -17 2 12 2 30 0 40 -3 9 -5 -1 -4 -23z"/>
<path d="M572 4130 c0 -14 2 -19 5 -12 2 6 2 18 0 25 -3 6 -5 1 -5 -13z"/>
<path d="M1413 4115 c0 -22 2 -30 4 -17 2 12 2 30 0 40 -3 9 -5 -1 -4 -23z"/>
<path d="M1456 4137 c3 -10 9 -15 12 -12 3 3 0 11 -7 18 -10 9 -11 8 -5 -6z"/>
<path d="M1862 4130 c0 -14 2 -19 5 -12 2 6 2 18 0 25 -3 6 -5 1 -5 -13z"/>
<path d="M2402 4130 c0 -14 2 -19 5 -12 2 6 2 18 0 25 -3 6 -5 1 -5 -13z"/>
<path d="M2433 4115 c0 -22 2 -30 4 -17 2 12 2 30 0 40 -3 9 -5 -1 -4 -23z"/>
<path d="M2903 4115 c0 -22 2 -30 4 -17 2 12 2 30 0 40 -3 9 -5 -1 -4 -23z"/>
<path d="M2946 4137 c3 -10 9 -15 12 -12 3 3 0 11 -7 18 -10 9 -11 8 -5 -6z"/>
<path d="M3416 4137 c3 -10 9 -15 12 -12 3 3 0 11 -7 18 -10 9 -11 8 -5 -6z"/>
<path d="M3616 4137 c3 -10 9 -15 12 -12 3 3 0 11 -7 18 -10 9 -11 8 -5 -6z"/>
<path d="M3666 4137 c3 -10 9 -15 12 -12 3 3 0 11 -7 18 -10 9 -11 8 -5 -6z"/>
<path d="M3993 4115 c0 -22 2 -30 4 -17 2 12 2 30 0 40 -3 9 -5 -1 -4 -23z"/>
<path d="M4223 4115 c0 -22 2 -30 4 -17 2 12 2 30 0 40 -3 9 -5 -1 -4 -23z"/>
<path d="M5306 4137 c3 -10 9 -15 12 -12 3 3 0 11 -7 18 -10 9 -11 8 -5 -6z"/>
<path d="M1222 4110 c0 -19 2 -27 5 -17 2 9 2 25 0 35 -3 9 -5 1 -5 -18z"/>
<path d="M1332 4110 c0 -19 2 -27 5 -17 2 9 2 25 0 35 -3 9 -5 1 -5 -18z"/>
<path d="M1382 4110 c0 -19 2 -27 5 -17 2 9 2 25 0 35 -3 9 -5 1 -5 -18z"/>
<path d="M4902 4110 c0 -19 2 -27 5 -17 2 9 2 25 0 35 -3 9 -5 1 -5 -18z"/>
<path d="M4952 4110 c0 -19 2 -27 5 -17 2 9 2 25 0 35 -3 9 -5 1 -5 -18z"/>
<path d="M2621 4114 c0 -11 3 -14 6 -6 3 7 2 16 -1 19 -3 4 -6 -2 -5 -13z"/>
<path d="M2711 4114 c0 -11 3 -14 6 -6 3 7 2 16 -1 19 -3 4 -6 -2 -5 -13z"/>
<path d="M3752 4110 c0 -14 2 -19 5 -12 2 6 2 18 0 25 -3 6 -5 1 -5 -13z"/>
<path d="M4092 4110 c0 -14 2 -19 5 -12 2 6 2 18 0 25 -3 6 -5 1 -5 -13z"/>
<path d="M4251 4114 c0 -11 3 -14 6 -6 3 7 2 16 -1 19 -3 4 -6 -2 -5 -13z"/>
<path d="M4371 4114 c0 -11 3 -14 6 -6 3 7 2 16 -1 19 -3 4 -6 -2 -5 -13z"/>
<path d="M4621 4114 c0 -11 3 -14 6 -6 3 7 2 16 -1 19 -3 4 -6 -2 -5 -13z"/>
<path d="M5021 4114 c0 -11 3 -14 6 -6 3 7 2 16 -1 19 -3 4 -6 -2 -5 -13z"/>
<path d="M5152 4105 c0 -16 2 -22 5 -12 2 9 2 23 0 30 -3 6 -5 -1 -5 -18z"/>
<path d="M1302 4100 c0 -14 2 -19 5 -12 2 6 2 18 0 25 -3 6 -5 1 -5 -13z"/>
<path d="M1715 4111 c4 -8 2 -17 -6 -22 -9 -6 -10 -9 -2 -9 19 0 27 21 13 33
-10 9 -11 9 -5 -2z"/>
<path d="M817 4103 c-14 -13 -7 -23 16 -22 17 1 18 2 4 6 -9 2 -15 9 -12 14 7
10 1 12 -8 2z"/>
<path d="M1250 4101 c0 -10 19 -25 25 -20 1 2 -3 10 -11 17 -8 7 -14 8 -14 3z"/>
<path d="M2120 4101 c0 -10 19 -25 25 -20 1 2 -3 10 -11 17 -8 7 -14 8 -14 3z"/>
<path d="M2217 4093 c3 -7 6 -13 8 -13 2 0 5 6 8 13 3 8 -1 14 -8 14 -7 0 -11
-6 -8 -14z"/>
<path d="M2806 4097 c3 -10 9 -15 12 -12 3 3 0 11 -7 18 -10 9 -11 8 -5 -6z"/>
<path d="M5100 4101 c0 -10 19 -25 25 -20 1 2 -3 10 -11 17 -8 7 -14 8 -14 3z"/>
<path d="M3208 4088 c5 -5 16 -8 23 -6 8 3 3 7 -10 11 -17 4 -21 3 -13 -5z"/>
<path d="M3718 4083 c7 -3 16 -2 19 1 4 3 -2 6 -13 5 -11 0 -14 -3 -6 -6z"/>
<path d="M4058 4083 c7 -3 16 -2 19 1 4 3 -2 6 -13 5 -11 0 -14 -3 -6 -6z"/>
<path d="M673 3920 c0 -30 2 -43 4 -27 2 15 2 39 0 55 -2 15 -4 2 -4 -28z"/>
<path d="M740 3920 c0 -29 3 -50 7 -46 7 7 5 87 -3 95 -2 2 -4 -20 -4 -49z"/>
<path d="M512 3900 c0 -19 2 -27 5 -17 2 9 2 25 0 35 -3 9 -5 1 -5 -18z"/>
<path d="M562 3900 c0 -19 2 -27 5 -17 2 9 2 25 0 35 -3 9 -5 1 -5 -18z"/>
<path d="M591 3904 c0 -11 3 -14 6 -6 3 7 2 16 -1 19 -3 4 -6 -2 -5 -13z"/>
<path d="M801 3904 c0 -11 3 -14 6 -6 3 7 2 16 -1 19 -3 4 -6 -2 -5 -13z"/>
<path d="M1001 3904 c0 -11 3 -14 6 -6 3 7 2 16 -1 19 -3 4 -6 -2 -5 -13z"/>
<path d="M350 3891 c0 -10 19 -25 25 -20 1 2 -3 10 -11 17 -8 7 -14 8 -14 3z"/>
<path d="M187 3443 c-11 -10 -8 -103 3 -103 6 0 10 17 10 38 l1 37 15 -27 c8
-16 18 -28 23 -28 4 0 14 12 21 28 l14 27 7 -40 c6 -38 6 -36 8 18 1 63 -8 67
-35 14 l-17 -31 -19 37 c-20 39 -21 41 -31 30z"/>
<path d="M462 3395 c0 -33 2 -52 5 -42 6 21 19 22 27 2 3 -8 10 -15 16 -15 7
0 5 9 -4 22 -11 16 -13 25 -4 35 7 9 7 13 0 13 -6 0 -14 -6 -19 -12 -5 -9 -10
-1 -14 22 -5 27 -6 22 -7 -25z"/>
<path d="M680 3440 c0 -5 5 -10 10 -10 6 0 10 5 10 10 0 6 -4 10 -10 10 -5 0
-10 -4 -10 -10z"/>
<path d="M950 3430 c-24 -24 -25 -38 -4 -68 17 -25 56 -29 74 -7 15 18 7 19
-21 4 -26 -13 -49 4 -49 38 0 28 25 41 51 24 15 -9 19 -8 19 3 0 13 -20 26
-41 26 -5 0 -18 -9 -29 -20z"/>
<path d="M1053 3395 c-1 -42 1 -51 6 -30 9 42 41 47 41 6 0 -17 5 -31 10 -31
13 0 13 36 -1 61 -7 13 -16 18 -29 14 -14 -4 -20 0 -23 17 -2 13 -4 -4 -4 -37z"/>
<path d="M1490 3395 c0 -30 5 -55 10 -55 6 0 10 25 10 55 0 30 -4 55 -10 55
-5 0 -10 -25 -10 -55z"/>
<path d="M1647 3444 c-4 -4 -7 -29 -7 -56 0 -45 2 -48 26 -48 41 0 64 18 64
49 0 16 -6 33 -13 39 -17 15 -61 25 -70 16z m63 -33 c13 -25 13 -27 -6 -45
-28 -28 -44 -20 -44 24 0 33 3 40 20 40 10 0 24 -9 30 -19z"/>
<path d="M1750 3440 c0 -5 5 -10 10 -10 6 0 10 5 10 10 0 6 -4 10 -10 10 -5 0
-10 -4 -10 -10z"/>
<path d="M2020 3396 l0 -54 38 1 c31 2 38 6 40 26 4 28 -21 53 -44 44 -9 -3
-14 2 -14 16 0 12 -4 21 -10 21 -5 0 -10 -24 -10 -54z m66 -7 c10 -17 -23 -46
-37 -32 -7 7 -9 19 -6 27 7 18 33 21 43 5z"/>
<path d="M2270 3440 c0 -5 5 -10 10 -10 6 0 10 5 10 10 0 6 -4 10 -10 10 -5 0
-10 -4 -10 -10z"/>
<path d="M626 3422 c-9 -14 10 -76 24 -80 12 -4 13 -2 3 9 -15 16 -17 49 -3
49 6 0 10 4 10 9 0 12 -28 22 -34 13z"/>
<path d="M1866 3422 c-2 -4 -1 -23 3 -42 4 -24 13 -36 26 -38 16 -3 18 -1 8 9
-7 7 -13 21 -13 30 0 10 6 20 13 22 9 4 8 8 -3 16 -18 13 -27 14 -34 3z"/>
<path d="M2216 3422 c-9 -14 10 -76 24 -80 12 -4 13 -2 3 9 -15 16 -17 49 -3
49 6 0 10 4 10 9 0 12 -28 22 -34 13z"/>
<path d="M333 3413 c-21 -8 -15 -22 7 -16 11 3 20 1 20 -5 0 -6 -10 -12 -22
-14 -37 -5 -28 -33 10 -34 30 -1 32 1 32 31 0 21 -6 35 -16 39 -9 3 -16 6 -17
5 -1 0 -8 -3 -14 -6z m27 -53 c0 -5 -7 -10 -15 -10 -8 0 -15 5 -15 10 0 6 7
10 15 10 8 0 15 -4 15 -10z"/>
<path d="M400 3379 c0 -21 5 -39 10 -39 6 0 10 13 10 29 0 16 6 31 12 33 7 3
2 7 -10 10 -20 6 -22 3 -22 -33z"/>
<path d="M548 3409 c-33 -19 -15 -69 23 -69 10 0 21 5 25 11 4 7 0 9 -14 5
-11 -4 -23 -2 -27 4 -4 6 4 10 19 10 28 0 34 18 14 38 -14 14 -18 14 -40 1z
m32 -19 c0 -5 -7 -10 -15 -10 -8 0 -15 5 -15 10 0 6 7 10 15 10 8 0 15 -4 15
-10z"/>
<path d="M687 3413 c-11 -10 -8 -73 3 -73 6 0 10 18 10 40 0 41 -2 45 -13 33z"/>
<path d="M720 3378 c0 -21 5 -38 10 -38 6 0 10 14 10 30 0 41 27 39 39 -2 l9
-33 1 38 c1 20 -2 38 -6 38 -5 1 -20 2 -35 3 -26 2 -28 -1 -28 -36z"/>
<path d="M823 3408 c-5 -7 -11 -32 -12 -55 -2 -42 -1 -43 29 -43 23 0 30 4 30
20 0 14 -7 20 -22 21 l-23 0 22 11 c11 6 23 21 26 34 3 20 0 24 -18 24 -12 0
-27 -6 -32 -12z m37 -18 c0 -5 -7 -10 -15 -10 -8 0 -15 5 -15 10 0 6 7 10 15
10 8 0 15 -4 15 -10z m0 -60 c0 -5 -9 -10 -20 -10 -11 0 -20 5 -20 10 0 6 9
10 20 10 11 0 20 -4 20 -10z"/>
<path d="M1153 3413 c-21 -8 -15 -22 7 -16 11 3 20 1 20 -5 0 -6 -10 -12 -22
-14 -37 -5 -28 -33 10 -34 30 -1 32 1 32 31 0 21 -6 35 -16 39 -9 3 -16 6 -17
5 -1 0 -8 -3 -14 -6z m27 -53 c0 -5 -7 -10 -15 -10 -8 0 -15 5 -15 10 0 6 7
10 15 10 8 0 15 -4 15 -10z"/>
<path d="M1220 3378 c0 -21 5 -38 10 -38 6 0 10 14 10 30 0 41 27 39 39 -2 l9
-33 1 38 c1 20 -2 38 -6 38 -5 1 -20 2 -35 3 -26 2 -28 -1 -28 -36z"/>
<path d="M1333 3412 c-19 -3 -23 -10 -23 -38 0 -19 5 -34 10 -34 6 0 10 14 10
31 0 41 32 36 41 -6 7 -29 7 -29 8 6 1 39 -9 47 -46 41z"/>
<path d="M1418 3409 c-33 -19 -15 -69 23 -69 10 0 21 5 25 11 4 7 0 9 -14 5
-11 -4 -23 -2 -27 4 -4 6 4 10 19 10 28 0 34 18 14 38 -14 14 -18 14 -40 1z
m32 -19 c0 -5 -7 -10 -15 -10 -8 0 -15 5 -15 10 0 6 7 10 15 10 8 0 15 -4 15
-10z"/>
<path d="M1543 3413 c-20 -7 -15 -31 7 -38 11 -3 20 -11 20 -16 0 -6 -10 -7
-22 -4 -18 6 -20 4 -12 -5 14 -14 46 -10 51 7 2 6 -8 19 -24 28 -24 14 -24 15
-5 12 12 -3 22 -2 22 3 0 11 -22 18 -37 13z"/>
<path d="M1803 3413 c-20 -7 -15 -31 7 -38 11 -3 20 -11 20 -16 0 -6 -9 -7
-21 -4 -15 5 -19 4 -15 -4 9 -14 43 -14 52 0 4 7 -4 20 -17 30 -20 16 -21 19
-6 19 10 0 15 5 12 10 -7 11 -13 11 -32 3z"/>
<path d="M1931 3375 l1 -40 9 33 c5 17 14 32 19 32 6 0 10 4 10 8 0 4 -9 8
-20 8 -17 0 -20 -7 -19 -41z"/>
<path d="M1993 3380 c0 -25 2 -35 4 -22 2 12 2 32 0 45 -2 12 -4 2 -4 -23z"/>
<path d="M2123 3385 c2 -38 4 -40 35 -41 31 -1 32 0 32 38 0 24 -4 37 -10 33
-5 -3 -10 -17 -10 -30 0 -23 -16 -42 -27 -32 -3 4 -9 21 -14 39 -8 33 -8 33
-6 -7z"/>
<path d="M2277 3413 c-11 -10 -8 -73 3 -73 6 0 10 18 10 40 0 41 -2 45 -13 33z"/>
<path d="M2325 3406 c-20 -14 -17 -44 6 -59 24 -15 49 -1 49 27 0 32 -30 50
-55 32z m42 -21 c1 -5 -1 -16 -6 -24 -8 -12 -12 -12 -25 -2 -8 7 -12 19 -9 27
6 16 34 15 40 -1z"/>
<path d="M2423 3412 c-19 -3 -23 -10 -23 -38 0 -19 5 -34 10 -34 6 0 10 14 10
31 0 41 32 36 41 -6 7 -29 7 -29 8 6 1 39 -9 47 -46 41z"/>
<path d="M1750 3375 c0 -19 5 -35 10 -35 6 0 10 16 10 35 0 19 -4 35 -10 35
-5 0 -10 -16 -10 -35z"/>
<path d="M2253 2573 c32 -5 33 -12 7 -63 -11 -22 -16 -40 -11 -40 7 0 17 19
48 98 4 8 -6 12 -33 11 -31 -2 -33 -3 -11 -6z"/>
<path d="M2320 2570 c-9 -6 -10 -10 -3 -10 7 0 13 -20 16 -47 3 -47 3 -47 5
10 1 31 1 57 0 57 -2 0 -10 -5 -18 -10z"/>
<path d="M2390 2570 c-9 -6 -10 -10 -3 -10 7 0 13 -20 16 -47 3 -47 3 -47 5
10 1 31 1 57 0 57 -2 0 -10 -5 -18 -10z"/>
<path d="M2440 2570 c-9 -6 -10 -10 -3 -10 7 0 13 -20 16 -47 3 -47 3 -47 5
10 1 31 1 57 0 57 -2 0 -10 -5 -18 -10z"/>
<path d="M2487 2574 c-15 -16 -7 -44 13 -44 24 0 25 -8 4 -38 -8 -12 -10 -22
-5 -22 6 0 11 4 11 8 0 5 7 17 15 28 14 18 15 18 12 -6 -1 -19 3 -25 18 -25
28 0 33 35 5 42 -13 3 -19 11 -16 19 17 41 16 46 -2 20 -20 -28 -20 -28 -24
-6 -3 24 -19 36 -31 24z m23 -19 c0 -8 -4 -15 -10 -15 -5 0 -10 7 -10 15 0 8
5 15 10 15 6 0 10 -7 10 -15z m60 -60 c0 -8 -4 -15 -10 -15 -5 0 -10 7 -10 15
0 8 5 15 10 15 6 0 10 -7 10 -15z"/>
<path d="M2147 2313 c-4 -3 -7 -343 -7 -755 l0 -748 265 0 265 0 0 749 c0 674
-2 749 -16 755 -21 8 -499 8 -507 -1z"/>
<path d="M380 1545 c-8 -9 -9 -15 -2 -15 6 0 14 5 17 10 4 6 11 8 16 5 17 -11
9 -39 -18 -67 l-27 -28 40 1 c38 1 38 2 9 9 -16 4 -25 8 -20 9 6 0 19 15 29
31 14 25 15 34 6 45 -16 19 -34 19 -50 0z"/>
<path d="M473 1553 c-7 -2 -13 -9 -13 -14 0 -6 8 -6 19 1 27 14 39 -7 15 -25
-18 -13 -18 -14 -1 -15 10 0 17 -8 17 -20 0 -23 -19 -26 -39 -7 -11 10 -13 9
-9 -3 3 -8 14 -16 25 -18 24 -4 48 22 37 40 -4 7 -8 24 -8 38 -1 24 -18 34
-43 23z"/>
<path d="M579 1544 c-18 -22 1 -49 35 -49 29 1 33 -7 11 -25 -12 -10 -18 -10
-32 1 -14 12 -16 12 -11 -1 8 -26 51 -18 62 12 19 55 -31 103 -65 62z m48 -10
c8 -21 -13 -42 -28 -27 -13 13 -5 43 11 43 6 0 13 -7 17 -16z"/>
<path d="M686 1547 c-35 -25 -17 -97 24 -97 41 0 59 72 24 97 -10 7 -21 13
-24 13 -3 0 -14 -6 -24 -13z m47 -19 c13 -19 1 -68 -16 -68 -33 0 -50 53 -25
78 15 15 28 11 41 -10z"/>
<path d="M774 1545 c-8 -21 6 -37 27 -32 23 6 23 3 3 -29 -9 -13 -14 -27 -12
-30 3 -3 17 16 32 42 28 50 34 70 12 41 -14 -18 -14 -17 -21 2 -7 24 -33 28
-41 6z m27 -18 c-13 -13 -26 -3 -16 12 3 6 11 8 17 5 6 -4 6 -10 -1 -17z"/>
<path d="M837 1494 c-16 -16 -7 -44 14 -44 15 0 20 5 17 22 -3 22 -19 33 -31
22z m23 -19 c0 -8 -4 -15 -10 -15 -5 0 -10 7 -10 15 0 8 5 15 10 15 6 0 10 -7
10 -15z"/>
<path d="M366 1294 c-14 -14 -16 -47 -14 -247 l3 -232 265 0 265 0 3 235 c2
212 1 236 -15 247 -12 10 -80 13 -254 13 -204 0 -240 -2 -253 -16z"/>
<path d="M1327 1094 c-14 -14 -7 -26 8 -14 15 13 35 6 35 -13 0 -6 -14 -26
-32 -44 l-32 -33 45 1 c29 1 35 3 17 6 l-28 4 21 28 c12 16 19 37 17 47 -3 19
-38 31 -51 18z"/>
<path d="M1438 1071 c-4 -28 -3 -29 24 -24 23 5 28 2 28 -15 0 -26 -18 -38
-33 -23 -17 17 -31 13 -17 -4 18 -21 47 -19 60 6 14 25 -2 49 -32 49 -27 0
-17 23 13 31 22 6 21 7 -7 8 -28 1 -32 -3 -36 -28z"/>
<path d="M1537 1094 c-14 -14 -7 -26 8 -14 12 10 19 10 27 2 9 -9 7 -16 -8
-27 -17 -13 -17 -14 -1 -15 19 0 23 -25 6 -36 -6 -3 -16 -1 -22 5 -17 17 -31
13 -17 -4 7 -9 23 -15 34 -13 18 3 21 10 21 53 0 43 -3 50 -20 53 -12 2 -24 0
-28 -4z"/>
<path d="M1614 1085 c-8 -21 6 -37 27 -32 23 6 23 3 3 -29 -9 -13 -14 -27 -12
-30 3 -3 17 16 32 42 28 50 34 70 12 41 -14 -18 -14 -17 -21 2 -7 24 -33 28
-41 6z m27 -18 c-13 -13 -26 -3 -16 12 3 6 11 8 17 5 6 -4 6 -10 -1 -17z"/>
<path d="M3134 1055 c-33 -50 23 -114 64 -73 20 20 15 76 -7 88 -29 15 -39 13
-57 -15z m66 -29 c0 -28 -24 -51 -45 -42 -18 6 -20 57 -3 74 17 17 48 -4 48
-32z"/>
<path d="M3276 1040 c-32 -48 -32 -50 -2 -50 13 0 27 -6 29 -12 4 -10 8 -10
14 -1 10 14 4 103 -7 103 -4 0 -19 -18 -34 -40z m34 -10 c0 -20 -25 -38 -36
-27 -7 6 18 47 28 47 5 0 8 -9 8 -20z"/>
<path d="M3350 1070 c-9 -6 -10 -10 -3 -10 7 0 13 -20 16 -47 3 -47 3 -47 5
10 1 31 1 57 0 57 -2 0 -10 -5 -18 -10z"/>
<path d="M3394 1065 c-8 -21 6 -37 27 -32 23 6 23 3 3 -29 -9 -13 -14 -27 -12
-30 3 -3 17 16 32 42 28 50 34 70 12 41 -14 -18 -14 -17 -21 2 -7 24 -33 28
-41 6z m27 -18 c-13 -13 -26 -3 -16 12 3 6 11 8 17 5 6 -4 6 -10 -1 -17z"/>
<path d="M4036 1067 c-35 -25 -17 -97 24 -97 41 0 59 72 24 97 -10 7 -21 13
-24 13 -3 0 -14 -6 -24 -13z m47 -19 c13 -19 1 -68 -16 -68 -33 0 -50 53 -25
78 15 15 28 11 41 -10z"/>
<path d="M4163 1068 c-5 -7 -9 -31 -9 -53 1 -38 3 -40 31 -40 23 0 31 5 33 23
2 12 -2 22 -9 22 -9 0 -8 4 1 15 10 12 10 18 0 30 -15 18 -34 19 -47 3z m29
-30 c-15 -15 -26 -4 -18 18 5 13 9 15 18 6 9 -9 9 -15 0 -24z m16 -35 c5 -17
-26 -29 -40 -15 -6 6 -7 15 -3 22 9 14 37 9 43 -7z"/>
<path d="M4240 1070 c-9 -6 -10 -10 -3 -10 7 0 13 -20 16 -47 3 -47 3 -47 5
10 1 31 1 57 0 57 -2 0 -10 -5 -18 -10z"/>
<path d="M4284 1065 c-8 -21 6 -37 27 -32 23 6 23 3 3 -29 -9 -13 -14 -27 -12
-30 3 -3 17 16 32 42 28 50 34 70 12 41 -14 -18 -14 -17 -21 2 -7 24 -33 28
-41 6z m27 -18 c-13 -13 -26 -3 -16 12 3 6 11 8 17 5 6 -4 6 -10 -1 -17z"/>
<path d="M4920 1070 c-9 -6 -10 -10 -3 -10 7 0 13 -20 16 -47 3 -47 3 -47 5
10 1 31 1 57 0 57 -2 0 -10 -5 -18 -10z"/>
<path d="M5007 1074 c-4 -4 -7 -12 -7 -18 0 -6 5 -5 12 2 37 37 43 -12 7 -53
l-31 -35 38 1 c23 1 30 3 17 6 l-23 4 22 30 c17 23 20 34 12 47 -12 19 -36 27
-47 16z"/>
<path d="M5090 1065 c-8 -9 -9 -15 -2 -15 6 0 14 5 17 10 4 6 11 8 16 5 17
-11 9 -39 -18 -67 l-27 -28 40 1 c38 1 38 2 9 9 -16 4 -25 8 -20 9 6 0 19 15
29 31 14 25 15 34 6 45 -16 19 -34 19 -50 0z"/>
<path d="M5173 1069 c-16 -16 -5 -39 18 -39 19 0 19 -2 4 -32 l-16 -33 20 24
c15 16 19 31 15 50 -11 44 -20 51 -41 30z m27 -14 c0 -8 -4 -15 -10 -15 -5 0
-10 7 -10 15 0 8 5 15 10 15 6 0 10 -7 10 -15z"/>
<path d="M5230 1060 c-6 -12 -9 -24 -7 -27 3 -2 11 5 17 17 6 12 9 24 7 27 -3
2 -11 -5 -17 -17z"/>
<path d="M5787 1062 c-44 -48 15 -126 61 -80 17 17 15 64 -4 82 -20 21 -37 20
-57 -2z m58 -23 c8 -23 -11 -59 -30 -59 -32 0 -40 62 -12 82 15 9 35 -1 42
-23z"/>
<path d="M5916 1067 c-35 -25 -17 -97 24 -97 41 0 59 72 24 97 -10 7 -21 13
-24 13 -3 0 -14 -6 -24 -13z m47 -19 c13 -19 1 -68 -16 -68 -33 0 -50 53 -25
78 15 15 28 11 41 -10z"/>
<path d="M6017 1073 c-13 -13 -7 -25 7 -14 18 15 34 -5 17 -22 -7 -7 -6 -14 6
-22 9 -7 13 -17 9 -23 -9 -15 -36 -16 -36 -2 0 6 -4 10 -10 10 -5 0 -7 -7 -3
-16 3 -9 15 -14 32 -12 23 3 26 8 27 43 0 22 -4 46 -9 53 -10 13 -30 16 -40 5z"/>
<path d="M6097 1074 c-15 -16 -7 -44 13 -44 24 0 25 -8 4 -38 -8 -12 -10 -22
-5 -22 6 0 11 4 11 8 0 5 7 17 16 28 11 14 14 15 11 3 -7 -23 8 -43 27 -36 23
9 20 38 -5 44 -12 3 -18 11 -15 19 17 41 16 46 -2 20 -20 -28 -20 -28 -24 -6
-3 24 -19 36 -31 24z m23 -19 c0 -8 -4 -15 -10 -15 -5 0 -10 7 -10 15 0 8 5
15 10 15 6 0 10 -7 10 -15z m60 -60 c0 -8 -4 -15 -10 -15 -5 0 -10 7 -10 15 0
8 5 15 10 15 6 0 10 -7 10 -15z"/>
<path d="M1677 1034 c-16 -16 -7 -44 14 -44 15 0 20 5 17 22 -3 22 -19 33 -31
22z m23 -19 c0 -8 -4 -15 -10 -15 -5 0 -10 7 -10 15 0 8 5 15 10 15 6 0 10 -7
10 -15z"/>
<path d="M3457 1014 c-16 -16 -7 -44 14 -44 15 0 20 5 17 22 -3 22 -19 33 -31
22z m23 -19 c0 -8 -4 -15 -10 -15 -5 0 -10 7 -10 15 0 8 5 15 10 15 6 0 10 -7
10 -15z"/>
<path d="M4347 1014 c-16 -16 -7 -44 14 -44 15 0 20 5 17 22 -3 22 -19 33 -31
22z m23 -19 c0 -8 -4 -15 -10 -15 -5 0 -10 7 -10 15 0 8 5 15 10 15 6 0 10 -7
10 -15z"/>
<path d="M5224 1005 c-4 -9 -2 -21 4 -27 15 -15 44 -1 40 19 -4 23 -36 29 -44
8z m30 -16 c-3 -5 -10 -7 -15 -3 -5 3 -7 10 -3 15 3 5 10 7 15 3 5 -3 7 -10 3
-15z"/>
<path d="M4073 813 c71 -2 183 -2 250 0 67 1 10 3 -128 3 -137 0 -192 -2 -122
-3z"/>
<path d="M590 700 c0 -32 2 -33 38 -24 15 4 22 14 22 30 0 20 -5 24 -30 24
-27 0 -30 -3 -30 -30z"/>
<path d="M2343 698 c-28 -31 -32 -57 -15 -91 17 -36 27 -29 11 7 -23 51 34
111 81 86 27 -14 34 -12 20 5 -19 23 -73 19 -97 -7z"/>
<path d="M3233 698 c-30 -34 -34 -56 -17 -90 8 -16 18 -28 20 -25 3 3 0 14 -7
25 -16 26 -4 68 26 88 22 14 27 14 55 1 32 -17 43 -5 11 13 -32 16 -66 12 -88
-12z"/>
<path d="M4166 694 c-5 -14 -4 -15 9 -4 17 14 19 20 6 20 -5 0 -12 -7 -15 -16z"/>
<path d="M1560 688 c0 -2 -9 -27 -20 -55 l-20 -53 35 0 35 0 0 55 c0 42 -3 55
-15 55 -8 0 -15 -1 -15 -2z"/>
<path d="M5000 620 l0 -60 34 0 c29 0 33 3 29 20 -5 20 -7 20 -24 4 -11 -10
-22 -14 -26 -10 -4 4 3 16 17 26 l25 19 -22 16 c-22 16 -34 43 -13 30 6 -3 10
-1 10 4 0 6 -7 11 -15 11 -12 0 -15 -13 -15 -60z"/>
<path d="M2398 663 c7 -3 16 -2 19 1 4 3 -2 6 -13 5 -11 0 -14 -3 -6 -6z"/>
<path d="M5920 610 c0 -49 1 -50 30 -50 28 0 30 3 30 35 0 30 -3 35 -22 34
-17 -1 -19 -2 -5 -6 25 -7 23 -53 -3 -53 -17 0 -20 7 -20 39 0 40 0 40 43 44
l42 4 -47 1 -48 2 0 -50z"/>
<path d="M6049 638 c-1 -7 -1 -25 -1 -40 0 -23 -4 -27 -31 -31 -31 -4 -30 -4
6 -5 l37 -2 0 45 c0 40 -8 64 -11 33z"/>
<path d="M3280 619 c0 -5 5 -7 10 -4 6 3 10 8 10 11 0 2 -4 4 -10 4 -5 0 -10
-5 -10 -11z"/>
<path d="M4260 593 c8 -3 19 -11 23 -17 6 -7 7 -6 4 4 -2 8 -12 16 -23 17 -13
2 -15 1 -4 -4z"/>
<path d="M4100 560 c0 -5 5 -10 11 -10 5 0 7 5 4 10 -3 6 -8 10 -11 10 -2 0
-4 -4 -4 -10z"/>
<path d="M1460 550 c0 -5 20 -10 45 -10 25 0 45 5 45 10 0 6 -20 10 -45 10
-25 0 -45 -4 -45 -10z"/>
<path d="M1521 404 c0 -11 3 -14 6 -6 3 7 2 16 -1 19 -3 4 -6 -2 -5 -13z"/>
<path d="M1561 404 c0 -11 3 -14 6 -6 3 7 2 16 -1 19 -3 4 -6 -2 -5 -13z"/>
<path d="M2461 404 c0 -11 3 -14 6 -6 3 7 2 16 -1 19 -3 4 -6 -2 -5 -13z"/>
<path d="M3201 394 c0 -11 3 -14 6 -6 3 7 2 16 -1 19 -3 4 -6 -2 -5 -13z"/>
<path d="M3321 394 c0 -11 3 -14 6 -6 3 7 2 16 -1 19 -3 4 -6 -2 -5 -13z"/>
<path d="M4241 394 c0 -11 3 -14 6 -6 3 7 2 16 -1 19 -3 4 -6 -2 -5 -13z"/>
</g>
</svg>
