<?xml version="1.0" encoding="utf-8" standalone="no"?>
<!DOCTYPE svg PUBLIC "-//W3C//DTD SVG 1.1//EN"
  "http://www.w3.org/Graphics/SVG/1.1/DTD/svg11.dtd">
<svg xmlns:xlink="http://www.w3.org/1999/xlink" width="720pt" height="360pt" viewBox="0 0 720 360" xmlns="http://www.w3.org/2000/svg" version="1.1">
 <metadata>
  <rdf:RDF xmlns:dc="http://purl.org/dc/elements/1.1/" xmlns:cc="http://creativecommons.org/ns#" xmlns:rdf="http://www.w3.org/1999/02/22-rdf-syntax-ns#">
   <cc:Work>
    <dc:type rdf:resource="http://purl.org/dc/dcmitype/StillImage"/>
    <dc:date>2023-06-02T00:05:22.466577</dc:date>
    <dc:format>image/svg+xml</dc:format>
    <dc:creator>
     <cc:Agent>
      <dc:title>Matplotlib v3.7.1, https://matplotlib.org/</dc:title>
     </cc:Agent>
    </dc:creator>
   </cc:Work>
  </rdf:RDF>
 </metadata>
 <defs>
  <style type="text/css">*{stroke-linejoin: round; stroke-linecap: butt}</style>
 </defs>
 <g id="figure_1">
  <g id="patch_1">
   <path d="M 0 360 
L 720 360 
L 720 0 
L 0 0 
z
" style="fill: #fff"/>
  </g>
  <g id="axes_1">
   <g id="patch_2">
    <path d="M 64.35 325.3 
L 357.885 325.3 
L 357.885 28.5 
L 64.35 28.5 
L 64.35 325.3 
z
" style="fill: none"/>
   </g>
   <g id="matplotlib.axis_1">
    <g id="xtick_1">
     <g id="line2d_1">
      <path d="M 101.041875 325.3 
L 101.041875 28.5 
" clip-path="url(#p39ebcc4e43)" style="fill: none; stroke: #696969; stroke-opacity: 0.3; stroke-linecap: round"/>
     </g>
     <g id="line2d_2">
      <defs>
       <path id="mfcd88085e9" d="M 0 0 
L 0 6 
" style="stroke: #1a1a1a; stroke-width: 1.25"/>
      </defs>
      <g>
       <use xlink:href="#mfcd88085e9" x="101.041875" y="325.3" style="fill: #1a1a1a; stroke: #1a1a1a; stroke-width: 1.25"/>
      </g>
     </g>
     <g id="text_1">
      <!-- Nyckel -->
      <g style="fill: #1a1a1a" transform="translate(83.001016 343.402344) scale(0.11 -0.11)">
       <defs>
        <path id="FuzzyBubbles-Regular-4e" d="M 550 32 
Q 390 32 368 147 
Q 346 262 346 403 
L 346 506 
L 358 595 
Q 365 634 377 685 
Q 390 736 397 781 
Q 410 877 426 963 
Q 442 1050 448 1094 
Q 461 1190 483 1401 
Q 506 1613 528 1859 
Q 550 2106 566 2310 
Q 582 2515 582 2592 
Q 582 2630 588 2787 
Q 595 2944 601 3133 
Q 608 3322 614 3475 
Q 621 3629 621 3667 
Q 621 3763 633 3881 
Q 646 4000 704 4089 
Q 762 4179 890 4179 
Q 979 4179 1078 4067 
Q 1178 3955 1222 3885 
Q 1248 3840 1270 3805 
Q 1293 3770 1312 3738 
Q 1517 3405 1757 3040 
Q 1997 2675 2221 2304 
Q 2330 2125 2499 1885 
Q 2669 1645 2845 1411 
Q 3021 1178 3155 1011 
Q 3270 864 3347 864 
Q 3418 864 3456 1037 
Q 3546 1498 3603 2077 
Q 3661 2656 3661 3200 
Q 3661 3437 3648 3651 
Q 3635 3866 3610 4045 
Q 3597 4154 3670 4214 
Q 3744 4275 3846 4275 
Q 3968 4275 4016 4243 
Q 4064 4211 4083 4134 
Q 4122 3962 4134 3712 
Q 4147 3462 4147 3238 
Q 4147 2362 4089 1699 
Q 4032 1037 3865 669 
Q 3699 301 3373 301 
Q 3194 301 3021 425 
Q 2848 550 2697 729 
Q 2547 909 2432 1082 
Q 2074 1619 1846 1974 
Q 1619 2330 1481 2541 
Q 1344 2752 1273 2857 
Q 1203 2963 1168 2995 
Q 1133 3027 1094 3027 
Q 1094 2925 1084 2710 
Q 1075 2496 1056 2214 
Q 1037 1933 1011 1638 
Q 986 1344 954 1078 
Q 922 813 890 634 
Q 870 538 838 394 
Q 806 250 739 141 
Q 672 32 550 32 
z
" transform="scale(0.015625)"/>
        <path id="FuzzyBubbles-Regular-79" d="M 1248 -1677 
Q 1229 -1677 1190 -1625 
Q 1152 -1574 1152 -1472 
Q 1152 -1382 1174 -1292 
Q 1197 -1203 1235 -1114 
Q 1280 -1018 1325 -922 
Q 1370 -826 1414 -730 
Q 1453 -634 1507 -486 
Q 1562 -339 1613 -188 
Q 1664 -38 1699 70 
Q 1734 179 1734 192 
L 1734 358 
Q 1338 358 1075 505 
Q 813 653 659 896 
Q 506 1139 435 1436 
Q 365 1734 342 2044 
Q 320 2355 320 2624 
Q 320 2752 326 2873 
Q 333 2995 358 3117 
Q 390 3264 438 3312 
Q 486 3360 531 3360 
Q 678 3360 739 3248 
Q 800 3136 800 2925 
Q 800 2778 781 2646 
Q 762 2515 762 2362 
L 762 2298 
Q 762 2240 784 2077 
Q 806 1914 832 1747 
Q 858 1581 870 1498 
Q 902 1357 966 1200 
Q 1030 1043 1148 934 
Q 1267 826 1453 826 
Q 1702 826 1897 1008 
Q 2093 1190 2256 1481 
Q 2419 1773 2554 2093 
Q 2605 2202 2649 2310 
Q 2694 2419 2739 2522 
Q 2790 2624 2835 2713 
Q 2880 2803 2931 2886 
Q 3034 3053 3120 3123 
Q 3206 3194 3290 3194 
Q 3373 3194 3414 3149 
Q 3456 3104 3456 2995 
Q 3456 2797 3389 2605 
Q 3322 2413 3219 2221 
Q 3110 2022 2988 1830 
Q 2867 1638 2778 1446 
Q 2726 1331 2640 1136 
Q 2554 941 2461 733 
Q 2368 525 2301 365 
Q 2234 205 2221 166 
Q 2214 134 2169 22 
Q 2125 -90 2070 -243 
Q 2016 -397 1958 -553 
Q 1901 -710 1859 -822 
Q 1818 -934 1805 -966 
Q 1766 -1082 1696 -1248 
Q 1626 -1414 1520 -1545 
Q 1414 -1677 1248 -1677 
z
" transform="scale(0.015625)"/>
        <path id="FuzzyBubbles-Regular-63" d="M 1728 96 
Q 1280 96 973 313 
Q 666 531 506 899 
Q 346 1267 346 1702 
Q 346 2189 563 2592 
Q 781 2995 1165 3241 
Q 1549 3488 2035 3488 
Q 2170 3488 2349 3469 
Q 2528 3450 2694 3392 
Q 2861 3334 2969 3225 
Q 3078 3117 3078 2938 
Q 3078 2867 3020 2816 
Q 2963 2765 2835 2765 
Q 2733 2765 2646 2816 
Q 2560 2867 2483 2918 
Q 2368 2995 2243 3056 
Q 2118 3117 1971 3117 
Q 1690 3117 1478 2973 
Q 1267 2829 1126 2601 
Q 986 2374 915 2121 
Q 845 1869 845 1658 
Q 845 1242 1008 995 
Q 1171 749 1443 643 
Q 1715 538 2035 538 
Q 2342 538 2595 646 
Q 2848 755 3110 877 
Q 3200 922 3258 922 
Q 3334 922 3360 861 
Q 3386 800 3386 710 
Q 3386 544 3251 432 
Q 3117 320 2912 253 
Q 2707 186 2473 150 
Q 2240 115 2041 105 
Q 1843 96 1728 96 
z
" transform="scale(0.015625)"/>
        <path id="FuzzyBubbles-Regular-6b" d="M 582 -64 
Q 493 -64 435 0 
Q 378 64 378 141 
L 378 262 
L 621 2733 
L 621 4275 
Q 621 4384 627 4531 
Q 634 4678 688 4793 
Q 742 4909 890 4909 
Q 1037 4909 1094 4736 
Q 1126 4640 1129 4528 
Q 1133 4416 1133 4307 
Q 1133 3885 1101 3408 
Q 1069 2931 1069 2400 
Q 1318 2477 1568 2560 
Q 1818 2643 2013 2713 
Q 2208 2784 2291 2816 
Q 2368 2854 2480 2912 
Q 2592 2970 2714 3021 
Q 2835 3072 2940 3107 
Q 3046 3142 3123 3142 
Q 3213 3142 3270 3078 
Q 3328 3014 3328 2906 
Q 3328 2803 3213 2752 
Q 3098 2701 3002 2662 
Q 2950 2637 2745 2553 
Q 2541 2470 2269 2364 
Q 1997 2259 1728 2156 
Q 1459 2054 1274 1990 
Q 1293 1971 1430 1875 
Q 1568 1779 1779 1635 
Q 1990 1491 2227 1334 
Q 2464 1178 2688 1034 
Q 2912 890 3072 790 
Q 3232 691 3283 659 
Q 3354 608 3424 560 
Q 3494 512 3558 454 
Q 3674 358 3674 269 
Q 3674 160 3616 99 
Q 3558 38 3501 38 
Q 3322 38 3085 218 
Q 2963 301 2854 390 
Q 2746 480 2656 544 
Q 2598 582 2454 678 
Q 2310 774 2112 902 
Q 1914 1030 1702 1168 
Q 1491 1306 1299 1434 
Q 1107 1562 973 1651 
L 787 128 
Q 768 38 707 -13 
Q 646 -64 582 -64 
z
" transform="scale(0.015625)"/>
        <path id="FuzzyBubbles-Regular-65" d="M 2054 -96 
Q 1568 -96 1174 48 
Q 781 192 550 502 
Q 320 813 320 1306 
Q 320 1696 451 2067 
Q 582 2438 825 2739 
Q 1069 3040 1408 3216 
Q 1747 3392 2163 3392 
Q 2451 3392 2684 3283 
Q 2918 3174 3059 2976 
Q 3200 2778 3200 2502 
Q 3200 2208 3075 1942 
Q 2950 1677 2739 1472 
Q 2528 1267 2262 1148 
Q 1997 1030 1709 1030 
Q 1459 1030 1241 1072 
Q 1024 1114 838 1203 
Q 838 960 953 790 
Q 1069 621 1248 515 
Q 1427 410 1622 362 
Q 1818 314 1984 314 
Q 2118 314 2252 330 
Q 2387 346 2547 346 
Q 2784 346 2784 141 
Q 2784 -19 2560 -64 
Q 2438 -90 2310 -93 
Q 2182 -96 2054 -96 
z
M 1709 1542 
Q 1933 1542 2176 1632 
Q 2419 1722 2588 1914 
Q 2758 2106 2758 2400 
Q 2758 2662 2595 2825 
Q 2432 2989 2163 2989 
Q 1920 2989 1686 2877 
Q 1453 2765 1261 2576 
Q 1069 2387 953 2150 
Q 838 1914 838 1664 
Q 986 1587 1210 1564 
Q 1434 1542 1709 1542 
z
" transform="scale(0.015625)"/>
        <path id="FuzzyBubbles-Regular-6c" d="M 902 -32 
Q 781 -32 717 64 
Q 653 160 627 301 
Q 602 442 598 582 
Q 595 723 595 806 
Q 595 858 592 922 
Q 589 986 589 1050 
Q 589 1370 608 1827 
Q 627 2285 662 2793 
Q 698 3302 746 3788 
Q 794 4275 851 4653 
Q 902 4838 988 4921 
Q 1075 5005 1158 5005 
Q 1235 5005 1296 4934 
Q 1357 4864 1357 4736 
Q 1357 4710 1357 4691 
Q 1357 4672 1350 4646 
Q 1190 3872 1145 3027 
Q 1101 2182 1101 1402 
Q 1101 1082 1110 835 
Q 1120 589 1120 326 
Q 1120 186 1059 77 
Q 998 -32 902 -32 
z
" transform="scale(0.015625)"/>
       </defs>
       <use xlink:href="#FuzzyBubbles-Regular-4e"/>
       <use xlink:href="#FuzzyBubbles-Regular-79" x="70.299988"/>
       <use xlink:href="#FuzzyBubbles-Regular-63" x="128.199982"/>
       <use xlink:href="#FuzzyBubbles-Regular-6b" x="186.099976"/>
       <use xlink:href="#FuzzyBubbles-Regular-65" x="246.499969"/>
       <use xlink:href="#FuzzyBubbles-Regular-6c" x="301.899963"/>
      </g>
     </g>
    </g>
    <g id="xtick_2">
     <g id="line2d_3">
      <path d="M 174.425625 325.3 
L 174.425625 28.5 
" clip-path="url(#p39ebcc4e43)" style="fill: none; stroke: #696969; stroke-opacity: 0.3; stroke-linecap: round"/>
     </g>
     <g id="line2d_4">
      <g>
       <use xlink:href="#mfcd88085e9" x="174.425625" y="325.3" style="fill: #1a1a1a; stroke: #1a1a1a; stroke-width: 1.25"/>
      </g>
     </g>
     <g id="text_2">
      <!-- Huggingface -->
      <g style="fill: #1a1a1a" transform="translate(139.883047 343.402344) scale(0.11 -0.11)">
       <defs>
        <path id="FuzzyBubbles-Regular-48" d="M 960 -58 
Q 864 -58 819 -3 
Q 774 51 764 115 
Q 755 179 755 198 
L 755 538 
Q 755 813 806 1097 
Q 858 1382 851 1715 
Q 851 1773 809 1846 
Q 768 1920 691 1920 
Q 570 1920 445 1949 
Q 320 1978 320 2118 
Q 320 2259 419 2326 
Q 518 2394 717 2419 
Q 851 2464 889 2585 
Q 928 2707 928 2790 
L 928 4000 
Q 928 4096 931 4205 
Q 934 4314 982 4390 
Q 1030 4467 1165 4467 
Q 1267 4467 1350 4393 
Q 1434 4320 1434 4230 
Q 1434 4051 1427 3817 
Q 1421 3584 1414 3350 
Q 1408 3117 1408 2925 
Q 1408 2739 1417 2620 
Q 1427 2502 1453 2490 
Q 1517 2470 1686 2464 
Q 1856 2458 2067 2454 
Q 2278 2451 2445 2451 
Q 2803 2451 3020 2451 
Q 3238 2451 3356 2454 
Q 3475 2458 3532 2458 
Q 3590 2458 3629 2458 
Q 3629 2496 3641 2630 
Q 3654 2765 3673 2925 
Q 3693 3085 3699 3187 
Q 3731 3411 3760 3635 
Q 3789 3859 3795 3949 
Q 3853 4365 4096 4365 
Q 4173 4365 4256 4329 
Q 4339 4294 4307 4090 
Q 4269 3827 4230 3622 
Q 4192 3418 4163 3222 
Q 4134 3027 4134 2790 
L 4134 2490 
Q 4320 2470 4397 2387 
Q 4474 2304 4474 2214 
Q 4474 2067 4400 2009 
Q 4326 1952 4236 1939 
Q 4147 1926 4096 1901 
L 4096 813 
Q 4096 723 4086 585 
Q 4077 448 4029 345 
Q 3981 243 3866 243 
Q 3750 243 3696 294 
Q 3642 346 3610 429 
Q 3571 531 3564 662 
Q 3558 794 3558 902 
Q 3558 1107 3574 1312 
Q 3590 1517 3590 1715 
Q 3590 1843 3571 1897 
Q 3552 1952 3482 1952 
Q 3386 1952 3181 1958 
Q 2976 1965 2742 1968 
Q 2509 1971 2310 1977 
Q 2112 1984 2035 1984 
L 1875 1984 
Q 1677 1984 1574 1961 
Q 1472 1939 1430 1872 
Q 1389 1805 1363 1664 
Q 1357 1472 1350 1261 
Q 1344 1050 1325 832 
Q 1312 589 1293 384 
Q 1274 179 1203 60 
Q 1133 -58 960 -58 
z
" transform="scale(0.015625)"/>
        <path id="FuzzyBubbles-Regular-75" d="M 1235 64 
Q 909 64 723 246 
Q 538 429 458 720 
Q 378 1011 378 1338 
Q 378 1562 384 1699 
Q 390 1837 412 1984 
Q 435 2131 480 2387 
Q 506 2515 531 2646 
Q 557 2778 602 2899 
Q 653 3046 713 3107 
Q 774 3168 819 3168 
Q 941 3168 1001 3101 
Q 1062 3034 1062 2931 
Q 1062 2790 1024 2668 
Q 986 2547 960 2438 
Q 915 2150 883 1980 
Q 851 1811 835 1673 
Q 819 1536 819 1338 
Q 819 1242 835 1107 
Q 851 973 896 845 
Q 941 717 1030 630 
Q 1120 544 1267 544 
Q 1421 544 1558 656 
Q 1696 768 1754 838 
Q 2189 1389 2528 1913 
Q 2867 2438 3200 3059 
Q 3245 3130 3273 3149 
Q 3302 3168 3347 3168 
Q 3494 3168 3552 3117 
Q 3610 3066 3610 2944 
Q 3610 2867 3590 2758 
Q 3494 2278 3494 1805 
Q 3494 1485 3552 1209 
Q 3610 934 3738 755 
Q 3834 634 3834 544 
Q 3834 435 3773 371 
Q 3712 307 3622 307 
Q 3379 307 3238 691 
Q 3194 826 3139 1034 
Q 3085 1242 3040 1453 
Q 2995 1664 2982 1805 
Q 2899 1670 2832 1539 
Q 2765 1408 2662 1261 
Q 2592 1158 2496 1027 
Q 2400 896 2291 755 
Q 2067 480 1798 272 
Q 1530 64 1235 64 
z
" transform="scale(0.015625)"/>
        <path id="FuzzyBubbles-Regular-67" d="M 1882 -1805 
Q 1658 -1805 1446 -1741 
Q 1235 -1677 1091 -1542 
Q 947 -1408 909 -1203 
Q 896 -1133 957 -1088 
Q 1018 -1043 1120 -1043 
Q 1178 -1043 1222 -1068 
Q 1267 -1094 1312 -1126 
Q 1331 -1146 1350 -1162 
Q 1370 -1178 1389 -1190 
Q 1472 -1254 1587 -1331 
Q 1702 -1408 1875 -1408 
Q 2138 -1408 2317 -1257 
Q 2496 -1107 2614 -873 
Q 2733 -640 2793 -390 
Q 2854 -141 2874 51 
Q 2899 282 2918 570 
Q 2938 858 2938 1075 
Q 2938 1267 2918 1350 
Q 2778 1158 2614 985 
Q 2451 813 2313 685 
Q 2176 557 2112 499 
Q 1997 403 1840 300 
Q 1683 198 1513 128 
Q 1344 58 1184 58 
Q 947 58 742 173 
Q 538 288 413 486 
Q 288 685 288 928 
Q 288 1370 467 1805 
Q 646 2240 963 2601 
Q 1280 2963 1699 3177 
Q 2118 3392 2598 3392 
Q 2803 3392 2963 3302 
Q 3123 3213 3123 3059 
Q 3123 2995 3072 2918 
Q 3021 2842 2944 2842 
Q 2912 2842 2874 2861 
Q 2797 2906 2701 2934 
Q 2605 2963 2496 2963 
Q 2387 2963 2272 2925 
Q 1958 2842 1686 2653 
Q 1414 2464 1206 2201 
Q 998 1939 883 1638 
Q 768 1338 768 1030 
Q 768 774 841 617 
Q 915 461 1152 461 
Q 1306 461 1469 557 
Q 1632 653 1776 787 
Q 1920 922 2010 1030 
Q 2144 1184 2291 1369 
Q 2438 1555 2572 1731 
Q 2707 1907 2800 2041 
Q 2893 2176 2918 2221 
Q 2976 2291 3014 2307 
Q 3053 2323 3123 2323 
Q 3238 2323 3289 2249 
Q 3341 2176 3360 2073 
Q 3379 1971 3392 1882 
L 3392 1395 
Q 3392 1133 3379 797 
Q 3366 461 3324 99 
Q 3283 -262 3187 -598 
Q 3091 -934 2924 -1209 
Q 2758 -1485 2502 -1645 
Q 2246 -1805 1882 -1805 
z
" transform="scale(0.015625)"/>
        <path id="FuzzyBubbles-Regular-69" d="M 1062 4186 
Q 851 4186 726 4285 
Q 602 4384 602 4544 
Q 602 4691 742 4771 
Q 883 4851 1101 4851 
Q 1318 4851 1440 4752 
Q 1562 4653 1562 4480 
Q 1562 4339 1424 4262 
Q 1286 4186 1062 4186 
z
M 730 96 
Q 640 96 592 211 
Q 544 326 528 505 
Q 512 685 512 877 
Q 512 966 515 1059 
Q 518 1152 518 1235 
Q 518 1261 537 1405 
Q 557 1549 582 1741 
Q 608 1933 637 2121 
Q 666 2310 685 2419 
Q 704 2502 729 2640 
Q 755 2778 822 2890 
Q 890 3002 1018 3002 
Q 1165 3002 1225 2947 
Q 1286 2893 1286 2778 
Q 1286 2746 1283 2714 
Q 1280 2682 1274 2643 
Q 1242 2438 1194 2134 
Q 1146 1830 1110 1500 
Q 1075 1171 1088 877 
Q 1094 806 1104 713 
Q 1114 621 1114 531 
Q 1114 365 1043 230 
Q 973 96 730 96 
z
" transform="scale(0.015625)"/>
        <path id="FuzzyBubbles-Regular-6e" d="M 717 128 
Q 621 128 576 173 
Q 531 218 512 301 
Q 480 410 480 531 
L 480 781 
Q 480 986 493 1136 
Q 506 1286 506 1466 
Q 506 1530 502 1603 
Q 499 1677 493 1760 
Q 467 2074 422 2419 
Q 378 2765 378 3046 
L 378 3296 
Q 416 3386 451 3405 
Q 486 3424 550 3424 
Q 704 3424 768 3305 
Q 832 3187 854 3030 
Q 877 2874 883 2758 
Q 890 2714 906 2566 
Q 922 2419 941 2236 
Q 960 2054 976 1888 
Q 992 1722 992 1632 
Q 1094 1843 1235 2070 
Q 1376 2298 1520 2496 
Q 1664 2694 1779 2816 
Q 1946 3002 2173 3107 
Q 2400 3213 2624 3213 
Q 2886 3213 3084 3065 
Q 3283 2918 3427 2681 
Q 3571 2445 3667 2173 
Q 3763 1901 3821 1645 
Q 3904 1306 3945 1050 
Q 3987 794 4019 467 
Q 4019 326 3961 243 
Q 3904 160 3821 160 
Q 3699 160 3648 214 
Q 3597 269 3578 390 
Q 3533 634 3491 941 
Q 3450 1248 3379 1565 
Q 3309 1882 3174 2144 
Q 3123 2266 3046 2394 
Q 2970 2522 2861 2611 
Q 2752 2701 2592 2701 
Q 2381 2701 2166 2515 
Q 1952 2330 1760 2035 
Q 1568 1741 1408 1405 
Q 1248 1069 1139 768 
Q 1107 666 1059 541 
Q 1011 416 960 307 
Q 915 218 860 173 
Q 806 128 717 128 
z
" transform="scale(0.015625)"/>
        <path id="FuzzyBubbles-Regular-66" d="M 1190 -256 
Q 1107 -256 1030 -176 
Q 954 -96 954 6 
L 954 2547 
L 774 2547 
Q 698 2547 621 2531 
Q 544 2515 461 2515 
Q 224 2515 224 2739 
Q 224 2829 352 2883 
Q 480 2938 678 2973 
Q 877 3008 1075 3040 
Q 1082 3546 1229 3955 
Q 1376 4365 1670 4605 
Q 1965 4845 2406 4845 
Q 2483 4845 2617 4835 
Q 2752 4826 2893 4794 
Q 3034 4762 3133 4694 
Q 3232 4627 3232 4512 
Q 3232 4410 3161 4342 
Q 3091 4275 3027 4275 
Q 2957 4275 2889 4294 
Q 2822 4314 2739 4339 
Q 2650 4371 2560 4390 
Q 2470 4410 2368 4410 
Q 2131 4410 1974 4288 
Q 1818 4166 1725 3968 
Q 1632 3770 1593 3536 
Q 1555 3302 1555 3078 
L 2445 3078 
Q 2490 3078 2550 3011 
Q 2611 2944 2611 2874 
Q 2611 2752 2486 2723 
Q 2362 2694 2253 2682 
Q 2208 2682 2102 2666 
Q 1997 2650 1869 2634 
Q 1741 2618 1635 2605 
Q 1530 2592 1485 2592 
Q 1472 2419 1459 2140 
Q 1446 1862 1433 1520 
Q 1421 1178 1411 819 
Q 1402 461 1402 122 
Q 1402 0 1370 -128 
Q 1338 -256 1190 -256 
z
" transform="scale(0.015625)"/>
        <path id="FuzzyBubbles-Regular-61" d="M 1485 -64 
Q 1197 -64 950 64 
Q 704 192 537 409 
Q 371 627 320 896 
L 320 1235 
Q 320 1600 454 1971 
Q 589 2342 829 2656 
Q 1069 2970 1398 3158 
Q 1728 3347 2112 3347 
Q 2355 3347 2582 3264 
Q 2810 3181 2989 3072 
Q 3027 3341 3084 3443 
Q 3142 3546 3283 3546 
Q 3392 3546 3437 3478 
Q 3482 3411 3482 3245 
Q 3482 2861 3466 2493 
Q 3450 2125 3450 1741 
Q 3450 1434 3485 1107 
Q 3520 781 3520 480 
Q 3520 384 3523 288 
Q 3526 192 3491 131 
Q 3456 70 3347 70 
Q 3194 70 3120 214 
Q 3046 358 3020 563 
Q 2995 768 2970 947 
Q 2906 774 2755 608 
Q 2605 442 2454 323 
Q 2304 205 2224 157 
Q 2144 109 2221 166 
Q 2080 64 1872 0 
Q 1664 -64 1485 -64 
z
M 1421 339 
Q 1709 339 1958 505 
Q 2208 672 2397 934 
Q 2586 1197 2691 1485 
Q 2797 1773 2797 2016 
Q 2797 2138 2768 2294 
Q 2739 2451 2662 2598 
Q 2586 2746 2454 2842 
Q 2323 2938 2112 2938 
Q 1837 2938 1587 2762 
Q 1338 2586 1142 2314 
Q 947 2042 838 1754 
Q 730 1466 730 1235 
Q 730 1062 790 851 
Q 851 640 1001 489 
Q 1152 339 1421 339 
z
" transform="scale(0.015625)"/>
       </defs>
       <use xlink:href="#FuzzyBubbles-Regular-48"/>
       <use xlink:href="#FuzzyBubbles-Regular-75" x="75.199982"/>
       <use xlink:href="#FuzzyBubbles-Regular-67" x="140.499969"/>
       <use xlink:href="#FuzzyBubbles-Regular-67" x="198.899963"/>
       <use xlink:href="#FuzzyBubbles-Regular-69" x="257.299957"/>
       <use xlink:href="#FuzzyBubbles-Regular-6e" x="283.499954"/>
       <use xlink:href="#FuzzyBubbles-Regular-67" x="350.899948"/>
       <use xlink:href="#FuzzyBubbles-Regular-66" x="409.299942"/>
       <use xlink:href="#FuzzyBubbles-Regular-61" x="453.799927"/>
       <use xlink:href="#FuzzyBubbles-Regular-63" x="514.699921"/>
       <use xlink:href="#FuzzyBubbles-Regular-65" x="572.599915"/>
      </g>
     </g>
    </g>
    <g id="xtick_3">
     <g id="line2d_5">
      <path d="M 247.809375 325.3 
L 247.809375 28.5 
" clip-path="url(#p39ebcc4e43)" style="fill: none; stroke: #696969; stroke-opacity: 0.3; stroke-linecap: round"/>
     </g>
     <g id="line2d_6">
      <g>
       <use xlink:href="#mfcd88085e9" x="247.809375" y="325.3" style="fill: #1a1a1a; stroke: #1a1a1a; stroke-width: 1.25"/>
      </g>
     </g>
     <g id="text_3">
      <!-- AWS -->
      <g style="fill: #1a1a1a" transform="translate(235.748047 343.402344) scale(0.11 -0.11)">
       <defs>
        <path id="FuzzyBubbles-Regular-41" d="M 934 64 
Q 870 64 809 102 
Q 749 141 730 186 
L 730 365 
Q 730 499 771 633 
Q 813 768 838 902 
Q 851 954 857 1021 
Q 864 1088 864 1242 
L 506 1242 
Q 461 1248 416 1254 
Q 371 1261 339 1267 
Q 294 1286 259 1328 
Q 224 1370 224 1478 
Q 224 1606 285 1651 
Q 346 1696 480 1722 
Q 550 1734 630 1744 
Q 710 1754 781 1760 
Q 858 1773 941 1798 
Q 1024 1824 1094 1882 
Q 1126 1907 1168 1952 
Q 1210 1997 1210 1997 
Q 1222 2010 1235 2038 
Q 1248 2067 1267 2112 
Q 1280 2138 1293 2173 
Q 1306 2208 1312 2240 
Q 1331 2291 1347 2339 
Q 1363 2387 1382 2413 
Q 1427 2496 1516 2678 
Q 1606 2861 1712 3075 
Q 1818 3290 1904 3462 
Q 1990 3635 2029 3699 
Q 2093 3808 2160 3917 
Q 2227 4026 2310 4122 
Q 2490 4339 2624 4339 
Q 2746 4339 2835 4278 
Q 2925 4218 3002 4109 
Q 3078 3994 3132 3869 
Q 3187 3744 3245 3616 
Q 3578 2893 3837 2112 
Q 4096 1331 4250 557 
L 4250 467 
Q 4250 358 4186 278 
Q 4122 198 4077 198 
Q 3923 198 3849 307 
Q 3776 416 3731 634 
Q 3706 742 3690 848 
Q 3674 954 3654 1050 
Q 3629 1139 3574 1244 
Q 3520 1350 3469 1414 
L 2758 1414 
Q 2656 1414 2528 1417 
Q 2400 1421 2259 1421 
Q 2118 1421 1971 1405 
Q 1824 1389 1696 1338 
Q 1530 1274 1443 1139 
Q 1357 1005 1315 841 
Q 1274 678 1242 525 
Q 1210 352 1162 208 
Q 1114 64 934 64 
z
M 2586 1882 
Q 2944 1882 3085 1888 
Q 3226 1894 3270 1952 
Q 3290 2003 3290 2067 
Q 3290 2157 3261 2269 
Q 3232 2381 3194 2470 
Q 3168 2534 3117 2665 
Q 3066 2797 3002 2957 
Q 2938 3117 2880 3264 
Q 2822 3411 2790 3494 
Q 2778 3539 2736 3587 
Q 2694 3635 2637 3635 
Q 2586 3635 2534 3571 
Q 2477 3494 2377 3308 
Q 2278 3123 2163 2899 
Q 2048 2675 1952 2467 
Q 1856 2259 1811 2144 
Q 1773 2061 1773 2010 
Q 1773 1926 1840 1904 
Q 1907 1882 1978 1882 
L 2586 1882 
z
" transform="scale(0.015625)"/>
        <path id="FuzzyBubbles-Regular-57" d="M 1146 256 
Q 954 256 826 374 
Q 698 493 618 681 
Q 538 870 496 1084 
Q 454 1299 438 1497 
Q 422 1696 410 1824 
Q 397 1978 390 2118 
Q 384 2259 381 2444 
Q 378 2630 378 2921 
Q 378 3213 378 3674 
Q 378 3808 397 3965 
Q 416 4122 486 4234 
Q 557 4346 710 4346 
Q 768 4346 822 4310 
Q 877 4275 877 4128 
Q 877 4013 870 3763 
Q 864 3514 864 3200 
Q 864 2848 870 2467 
Q 877 2086 899 1779 
Q 922 1472 954 1331 
Q 966 1293 992 1213 
Q 1018 1133 1043 1062 
Q 1069 992 1082 966 
Q 1139 864 1190 864 
Q 1229 864 1257 899 
Q 1286 934 1306 966 
Q 1344 1043 1446 1254 
Q 1549 1466 1683 1744 
Q 1818 2022 1952 2300 
Q 2086 2579 2192 2784 
Q 2298 2989 2342 3053 
Q 2458 3232 2534 3315 
Q 2611 3398 2790 3398 
Q 2957 3398 3030 3312 
Q 3104 3226 3149 3085 
L 3731 1382 
Q 3795 1254 3840 1228 
Q 3885 1203 3917 1203 
Q 3981 1203 4032 1270 
Q 4083 1338 4102 1382 
Q 4365 2022 4534 2617 
Q 4704 3213 4877 3898 
Q 4915 4045 4985 4144 
Q 5056 4243 5190 4243 
Q 5306 4243 5366 4185 
Q 5427 4128 5414 4038 
Q 5395 3936 5363 3805 
Q 5331 3674 5318 3629 
L 4685 1440 
Q 4646 1318 4582 1148 
Q 4518 979 4422 812 
Q 4326 646 4201 537 
Q 4077 429 3923 429 
Q 3731 429 3622 541 
Q 3514 653 3437 845 
Q 3296 1222 3136 1648 
Q 2976 2074 2854 2554 
Q 2842 2611 2813 2665 
Q 2784 2720 2746 2720 
Q 2701 2720 2656 2630 
Q 2458 2234 2291 1866 
Q 2125 1498 1920 1056 
Q 1850 890 1747 704 
Q 1645 518 1501 387 
Q 1357 256 1146 256 
z
" transform="scale(0.015625)"/>
        <path id="FuzzyBubbles-Regular-53" d="M 1811 0 
Q 1338 0 995 163 
Q 653 326 470 608 
Q 288 890 288 1248 
Q 288 1382 333 1446 
Q 378 1510 499 1510 
Q 525 1510 601 1488 
Q 678 1466 717 1408 
Q 787 1197 899 979 
Q 1011 762 1212 614 
Q 1414 467 1741 467 
Q 2054 467 2304 540 
Q 2554 614 2698 777 
Q 2842 941 2842 1210 
Q 2842 1414 2723 1558 
Q 2605 1702 2458 1786 
Q 2048 2010 1734 2163 
Q 1421 2317 1206 2461 
Q 992 2605 880 2806 
Q 768 3008 768 3328 
Q 768 3814 1155 4076 
Q 1542 4339 2163 4339 
Q 2310 4339 2512 4304 
Q 2714 4269 2909 4198 
Q 3104 4128 3232 4013 
Q 3360 3898 3360 3731 
Q 3360 3642 3289 3571 
Q 3219 3501 3123 3501 
Q 2982 3501 2889 3555 
Q 2797 3610 2688 3680 
Q 2566 3763 2409 3833 
Q 2253 3904 2010 3904 
Q 1824 3904 1651 3837 
Q 1478 3770 1366 3648 
Q 1254 3526 1254 3366 
Q 1254 3162 1369 3014 
Q 1485 2867 1645 2758 
Q 1722 2714 1811 2666 
Q 1901 2618 1997 2566 
Q 2086 2522 2185 2477 
Q 2285 2432 2381 2381 
Q 2650 2253 2870 2099 
Q 3091 1946 3225 1734 
Q 3360 1523 3360 1210 
Q 3360 826 3136 554 
Q 2912 282 2560 141 
Q 2208 0 1811 0 
z
" transform="scale(0.015625)"/>
       </defs>
       <use xlink:href="#FuzzyBubbles-Regular-41"/>
       <use xlink:href="#FuzzyBubbles-Regular-57" x="71.799988"/>
       <use xlink:href="#FuzzyBubbles-Regular-53" x="160.899979"/>
      </g>
     </g>
    </g>
    <g id="xtick_4">
     <g id="line2d_7">
      <path d="M 321.193125 325.3 
L 321.193125 28.5 
" clip-path="url(#p39ebcc4e43)" style="fill: none; stroke: #696969; stroke-opacity: 0.3; stroke-linecap: round"/>
     </g>
     <g id="line2d_8">
      <g>
       <use xlink:href="#mfcd88085e9" x="321.193125" y="325.3" style="fill: #1a1a1a; stroke: #1a1a1a; stroke-width: 1.25"/>
      </g>
     </g>
     <g id="text_4">
      <!-- Google -->
      <g style="fill: #1a1a1a" transform="translate(302.394297 343.402344) scale(0.11 -0.11)">
       <defs>
        <path id="FuzzyBubbles-Regular-47" d="M 2054 -224 
Q 1459 -224 1075 45 
Q 691 314 505 771 
Q 320 1229 320 1792 
Q 320 2240 473 2691 
Q 627 3142 912 3513 
Q 1197 3885 1593 4112 
Q 1990 4339 2470 4339 
Q 2650 4339 2864 4272 
Q 3078 4205 3276 4086 
Q 3475 3968 3603 3817 
Q 3731 3667 3731 3501 
Q 3731 3450 3673 3392 
Q 3616 3334 3526 3334 
Q 3482 3334 3440 3350 
Q 3398 3366 3366 3392 
Q 3315 3430 3283 3462 
L 3187 3565 
Q 3085 3680 2918 3776 
Q 2752 3872 2470 3872 
Q 2067 3872 1750 3667 
Q 1434 3462 1213 3142 
Q 992 2822 877 2464 
Q 762 2106 762 1792 
Q 762 1408 893 1062 
Q 1024 717 1309 499 
Q 1594 282 2054 282 
Q 2400 282 2713 454 
Q 3027 627 3225 918 
Q 3424 1210 3424 1555 
Q 3418 1581 3334 1593 
Q 3251 1606 2963 1619 
Q 2899 1626 2835 1626 
Q 2771 1626 2701 1626 
Q 2566 1626 2428 1622 
Q 2291 1619 2157 1619 
Q 1926 1619 1926 1888 
Q 1926 1965 1993 2032 
Q 2061 2099 2202 2125 
L 2598 2125 
Q 2816 2125 3043 2112 
Q 3270 2099 3465 2038 
Q 3661 1978 3779 1830 
Q 3898 1683 3898 1414 
Q 3898 1075 3734 777 
Q 3571 480 3302 256 
Q 3034 32 2707 -96 
Q 2381 -224 2054 -224 
z
" transform="scale(0.015625)"/>
        <path id="FuzzyBubbles-Regular-6f" d="M 2054 0 
Q 1594 0 1197 201 
Q 800 403 560 764 
Q 320 1126 320 1606 
Q 320 1933 457 2214 
Q 595 2496 812 2752 
Q 1030 3008 1267 3251 
Q 1376 3360 1517 3408 
Q 1658 3456 1818 3456 
Q 2259 3456 2649 3363 
Q 3040 3270 3344 3065 
Q 3648 2861 3821 2534 
Q 3994 2208 3994 1741 
Q 3994 1357 3830 1037 
Q 3667 717 3388 483 
Q 3110 250 2764 125 
Q 2419 0 2054 0 
z
M 1914 474 
Q 2208 474 2499 557 
Q 2790 640 3027 809 
Q 3264 979 3408 1235 
Q 3552 1491 3552 1843 
Q 3552 2163 3414 2390 
Q 3277 2618 3053 2762 
Q 2829 2906 2566 2976 
Q 2304 3046 2054 3046 
Q 1952 3046 1827 3030 
Q 1702 3014 1587 2906 
Q 1446 2771 1302 2633 
Q 1158 2496 1037 2330 
Q 915 2170 838 1971 
Q 762 1773 762 1542 
Q 762 1171 918 934 
Q 1075 698 1337 586 
Q 1600 474 1914 474 
z
" transform="scale(0.015625)"/>
       </defs>
       <use xlink:href="#FuzzyBubbles-Regular-47"/>
       <use xlink:href="#FuzzyBubbles-Regular-6f" x="66.299988"/>
       <use xlink:href="#FuzzyBubbles-Regular-6f" x="134.099976"/>
       <use xlink:href="#FuzzyBubbles-Regular-67" x="201.899963"/>
       <use xlink:href="#FuzzyBubbles-Regular-6c" x="260.299957"/>
       <use xlink:href="#FuzzyBubbles-Regular-65" x="286.399948"/>
      </g>
     </g>
    </g>
   </g>
   <g id="matplotlib.axis_2">
    <g id="ytick_1">
     <g id="line2d_9">
      <path d="M 64.35 313.364239 
L 357.885 313.364239 
" clip-path="url(#p39ebcc4e43)" style="fill: none; stroke: #696969; stroke-opacity: 0.3; stroke-linecap: round"/>
     </g>
     <g id="line2d_10">
      <defs>
       <path id="m269186274e" d="M 0 0 
L -6 0 
" style="stroke: #1a1a1a; stroke-width: 1.25"/>
      </defs>
      <g>
       <use xlink:href="#m269186274e" x="64.35" y="313.364239" style="fill: #1a1a1a; stroke: #1a1a1a; stroke-width: 1.25"/>
      </g>
     </g>
     <g id="text_5">
      <!-- 100 -->
      <g style="fill: #1a1a1a" transform="translate(33.07 317.665411) scale(0.11 -0.11)">
       <defs>
        <path id="FuzzyBubbles-Regular-31" d="M 429 64 
Q 365 64 326 99 
Q 288 134 288 269 
Q 288 346 352 390 
Q 416 435 576 467 
Q 653 480 726 489 
Q 800 499 858 506 
Q 986 525 1046 582 
Q 1107 640 1107 691 
L 1286 3085 
L 1286 3392 
Q 1133 3392 1075 3382 
Q 1018 3373 986 3360 
Q 960 3354 934 3338 
Q 909 3322 877 3309 
Q 826 3283 787 3270 
Q 749 3258 710 3258 
Q 627 3258 566 3312 
Q 506 3366 506 3424 
Q 506 3584 685 3744 
Q 723 3782 771 3817 
Q 819 3853 870 3891 
Q 922 3923 970 3961 
Q 1018 4000 1056 4032 
Q 1107 4070 1155 4115 
Q 1203 4160 1242 4198 
Q 1280 4237 1318 4275 
Q 1357 4314 1395 4346 
Q 1523 4467 1677 4467 
Q 1702 4467 1734 4470 
Q 1766 4474 1792 4474 
Q 1830 4474 1859 4461 
Q 1888 4448 1888 4397 
L 1888 3974 
L 1638 1818 
L 1638 704 
Q 1901 704 2064 736 
Q 2227 768 2387 768 
Q 2509 768 2553 729 
Q 2598 691 2598 602 
Q 2598 486 2547 435 
Q 2496 384 2368 371 
Q 2285 358 2102 329 
Q 1920 301 1689 259 
Q 1459 218 1225 176 
Q 992 134 803 105 
Q 614 77 525 64 
L 429 64 
z
" transform="scale(0.015625)"/>
        <path id="FuzzyBubbles-Regular-30" d="M 2298 32 
Q 1875 32 1481 201 
Q 1088 371 797 681 
Q 506 992 378 1414 
Q 352 1530 349 1706 
Q 346 1882 346 1984 
Q 346 2752 653 3293 
Q 960 3834 1520 4118 
Q 2080 4403 2842 4403 
Q 3162 4403 3488 4313 
Q 3814 4224 3974 3994 
Q 4256 3603 4406 3203 
Q 4557 2803 4557 2349 
Q 4557 1664 4278 1142 
Q 4000 621 3494 326 
Q 2989 32 2298 32 
z
M 2406 467 
Q 2669 467 2953 588 
Q 3238 710 3491 918 
Q 3744 1126 3901 1395 
Q 4058 1664 4058 1952 
L 4058 2739 
Q 4058 2739 4038 2803 
Q 4019 2867 3993 2937 
Q 3968 3008 3942 3027 
Q 3936 3040 3917 3085 
Q 3898 3130 3878 3174 
L 3770 3392 
Q 3738 3462 3658 3510 
Q 3578 3558 3488 3590 
L 3366 3629 
Q 3341 3642 3331 3651 
Q 3322 3661 3309 3667 
L 3168 3782 
Q 3142 3808 3107 3830 
Q 3072 3853 3040 3878 
Q 2963 3923 2876 3945 
Q 2790 3968 2669 3968 
Q 2285 3968 1949 3814 
Q 1613 3661 1360 3392 
Q 1107 3123 963 2787 
Q 819 2451 819 2086 
Q 819 1773 940 1481 
Q 1062 1190 1276 960 
Q 1491 730 1782 598 
Q 2074 467 2406 467 
z
" transform="scale(0.015625)"/>
       </defs>
       <use xlink:href="#FuzzyBubbles-Regular-31"/>
       <use xlink:href="#FuzzyBubbles-Regular-30" x="44.599991"/>
       <use xlink:href="#FuzzyBubbles-Regular-30" x="121.299973"/>
      </g>
     </g>
    </g>
    <g id="ytick_2">
     <g id="line2d_11">
      <path d="M 64.35 274.485538 
L 357.885 274.485538 
" clip-path="url(#p39ebcc4e43)" style="fill: none; stroke: #696969; stroke-opacity: 0.3; stroke-linecap: round"/>
     </g>
     <g id="line2d_12">
      <g>
       <use xlink:href="#m269186274e" x="64.35" y="274.485538" style="fill: #1a1a1a; stroke: #1a1a1a; stroke-width: 1.25"/>
      </g>
     </g>
     <g id="text_6">
      <!-- 200 -->
      <g style="fill: #1a1a1a" transform="translate(31.605625 278.78671) scale(0.11 -0.11)">
       <defs>
        <path id="FuzzyBubbles-Regular-32" d="M 582 224 
Q 435 224 390 269 
Q 346 314 346 454 
Q 346 794 547 1107 
Q 749 1421 1024 1670 
Q 1082 1709 1226 1814 
Q 1370 1920 1533 2041 
Q 1696 2163 1833 2262 
Q 1971 2362 2022 2400 
Q 2266 2586 2448 2829 
Q 2630 3072 2630 3418 
Q 2630 3603 2540 3766 
Q 2451 3930 2294 4029 
Q 2138 4128 1939 4128 
Q 1613 4128 1405 4006 
Q 1197 3885 1043 3757 
Q 1011 3725 972 3696 
Q 934 3667 902 3635 
Q 819 3565 729 3510 
Q 640 3456 518 3456 
Q 486 3456 451 3497 
Q 416 3539 416 3629 
Q 416 3827 579 3996 
Q 742 4166 992 4294 
Q 1242 4422 1507 4492 
Q 1773 4563 1971 4563 
Q 2310 4563 2576 4403 
Q 2842 4243 2995 3974 
Q 3149 3706 3149 3386 
Q 3149 3027 2941 2697 
Q 2733 2368 2445 2144 
L 1216 1229 
L 742 762 
L 1178 762 
Q 1485 762 1779 813 
Q 2074 864 2387 864 
Q 2445 864 2525 864 
Q 2605 864 2688 858 
Q 2778 858 2867 848 
Q 2957 838 3040 826 
Q 3386 755 3386 557 
Q 3386 454 3334 406 
Q 3283 358 3149 358 
Q 2938 358 2730 393 
Q 2522 429 2285 429 
L 1990 429 
L 742 224 
L 582 224 
z
" transform="scale(0.015625)"/>
       </defs>
       <use xlink:href="#FuzzyBubbles-Regular-32"/>
       <use xlink:href="#FuzzyBubbles-Regular-30" x="57.899994"/>
       <use xlink:href="#FuzzyBubbles-Regular-30" x="134.599976"/>
      </g>
     </g>
    </g>
    <g id="ytick_3">
     <g id="line2d_13">
      <path d="M 64.35 235.606838 
L 357.885 235.606838 
" clip-path="url(#p39ebcc4e43)" style="fill: none; stroke: #696969; stroke-opacity: 0.3; stroke-linecap: round"/>
     </g>
     <g id="line2d_14">
      <g>
       <use xlink:href="#m269186274e" x="64.35" y="235.606838" style="fill: #1a1a1a; stroke: #1a1a1a; stroke-width: 1.25"/>
      </g>
     </g>
     <g id="text_7">
      <!-- 300 -->
      <g style="fill: #1a1a1a" transform="translate(31.440625 239.90801) scale(0.11 -0.11)">
       <defs>
        <path id="FuzzyBubbles-Regular-33" d="M 1594 64 
Q 1459 64 1241 102 
Q 1024 141 803 217 
Q 582 294 435 412 
Q 288 531 288 698 
Q 288 755 349 809 
Q 410 864 499 864 
Q 550 864 646 826 
L 858 717 
Q 973 653 1126 592 
Q 1280 531 1459 531 
Q 1677 531 1929 582 
Q 2182 634 2412 746 
Q 2643 858 2790 1037 
Q 2938 1216 2938 1472 
Q 2938 1741 2781 1923 
Q 2624 2106 2381 2211 
Q 2138 2317 1875 2371 
Q 1613 2426 1408 2438 
Q 1357 2483 1357 2605 
Q 1357 2669 1408 2713 
Q 1459 2758 1594 2797 
Q 1664 2816 1734 2829 
Q 1805 2842 1869 2854 
Q 1939 2867 2006 2880 
Q 2074 2893 2131 2918 
Q 2278 2976 2441 3088 
Q 2605 3200 2720 3347 
Q 2835 3494 2835 3654 
Q 2835 3891 2710 4038 
Q 2586 4186 2400 4253 
Q 2214 4320 2042 4320 
Q 1805 4320 1625 4237 
Q 1446 4154 1312 4064 
Q 1248 4019 1190 3977 
Q 1133 3936 1069 3904 
Q 966 3846 870 3846 
Q 768 3846 717 3891 
Q 666 3936 666 3981 
Q 666 4134 778 4259 
Q 890 4384 1069 4477 
Q 1248 4570 1446 4630 
Q 1645 4691 1824 4723 
Q 2003 4755 2112 4755 
Q 2432 4755 2697 4624 
Q 2963 4493 3123 4265 
Q 3283 4038 3283 3750 
Q 3283 3456 3155 3232 
Q 3027 3008 2803 2765 
L 2803 2579 
Q 3117 2330 3286 2083 
Q 3456 1837 3456 1504 
Q 3456 1171 3289 905 
Q 3123 640 2851 451 
Q 2579 262 2249 163 
Q 1920 64 1594 64 
z
" transform="scale(0.015625)"/>
       </defs>
       <use xlink:href="#FuzzyBubbles-Regular-33"/>
       <use xlink:href="#FuzzyBubbles-Regular-30" x="59.399994"/>
       <use xlink:href="#FuzzyBubbles-Regular-30" x="136.099976"/>
      </g>
     </g>
    </g>
    <g id="ytick_4">
     <g id="line2d_15">
      <path d="M 64.35 196.728137 
L 357.885 196.728137 
" clip-path="url(#p39ebcc4e43)" style="fill: none; stroke: #696969; stroke-opacity: 0.3; stroke-linecap: round"/>
     </g>
     <g id="line2d_16">
      <g>
       <use xlink:href="#m269186274e" x="64.35" y="196.728137" style="fill: #1a1a1a; stroke: #1a1a1a; stroke-width: 1.25"/>
      </g>
     </g>
     <g id="text_8">
      <!-- 400 -->
      <g style="fill: #1a1a1a" transform="translate(31.440625 201.029309) scale(0.11 -0.11)">
       <defs>
        <path id="FuzzyBubbles-Regular-34" d="M 2662 -96 
Q 2547 -96 2486 -35 
Q 2426 26 2394 147 
Q 2374 211 2368 281 
Q 2362 352 2355 429 
L 2355 710 
Q 2355 934 2374 1168 
Q 2394 1402 2394 1664 
L 2272 1779 
L 2074 1779 
Q 1818 1779 1562 1763 
Q 1306 1747 1050 1747 
L 595 1747 
Q 390 1837 307 1949 
Q 224 2061 224 2285 
Q 224 2432 253 2592 
Q 282 2752 346 2854 
L 966 4173 
Q 1043 4326 1216 4326 
Q 1286 4326 1356 4259 
Q 1427 4192 1427 4096 
Q 1427 4058 1424 4042 
Q 1421 4026 1414 4013 
Q 1402 3987 1382 3948 
Q 1363 3910 1331 3846 
Q 1248 3661 1139 3475 
Q 1030 3290 941 3104 
Q 838 2906 771 2678 
Q 704 2451 704 2112 
L 1318 2112 
Q 1338 2112 1478 2121 
Q 1619 2131 1776 2147 
Q 1933 2163 2010 2182 
L 1990 2182 
Q 2035 2189 2153 2227 
Q 2272 2266 2377 2314 
Q 2483 2362 2490 2400 
L 2835 4339 
Q 2854 4448 2899 4489 
Q 2944 4531 3040 4531 
Q 3168 4531 3225 4483 
Q 3283 4435 3283 4365 
Q 3283 4320 3270 4269 
Q 3258 4218 3232 4154 
Q 3206 4083 3180 4006 
Q 3155 3930 3142 3846 
Q 3130 3770 3107 3594 
Q 3085 3418 3059 3210 
Q 3034 3002 3011 2822 
Q 2989 2643 2976 2566 
L 2976 2522 
Q 2976 2426 3033 2374 
Q 3091 2323 3130 2304 
Q 3168 2285 3219 2269 
Q 3270 2253 3315 2234 
Q 3488 2170 3488 2048 
Q 3488 1901 3360 1840 
Q 3232 1779 2957 1779 
L 2874 1613 
L 2797 -19 
Q 2797 -32 2761 -64 
Q 2726 -96 2662 -96 
z
" transform="scale(0.015625)"/>
       </defs>
       <use xlink:href="#FuzzyBubbles-Regular-34"/>
       <use xlink:href="#FuzzyBubbles-Regular-30" x="59.399994"/>
       <use xlink:href="#FuzzyBubbles-Regular-30" x="136.099976"/>
      </g>
     </g>
    </g>
    <g id="ytick_5">
     <g id="line2d_17">
      <path d="M 64.35 157.849437 
L 357.885 157.849437 
" clip-path="url(#p39ebcc4e43)" style="fill: none; stroke: #696969; stroke-opacity: 0.3; stroke-linecap: round"/>
     </g>
     <g id="line2d_18">
      <g>
       <use xlink:href="#m269186274e" x="64.35" y="157.849437" style="fill: #1a1a1a; stroke: #1a1a1a; stroke-width: 1.25"/>
      </g>
     </g>
     <g id="text_9">
      <!-- 500 -->
      <g style="fill: #1a1a1a" transform="translate(31.495625 162.150609) scale(0.11 -0.11)">
       <defs>
        <path id="FuzzyBubbles-Regular-35" d="M 1248 -192 
Q 1146 -192 1018 -189 
Q 890 -186 794 -138 
Q 698 -90 698 38 
L 698 134 
Q 698 179 707 220 
Q 717 262 749 275 
Q 877 275 979 272 
Q 1082 269 1178 269 
Q 1286 269 1395 278 
Q 1504 288 1626 314 
Q 1875 365 2121 512 
Q 2368 659 2569 870 
Q 2771 1082 2892 1331 
Q 3014 1581 3014 1850 
Q 3014 2118 2870 2262 
Q 2726 2406 2518 2464 
Q 2310 2522 2112 2522 
Q 1869 2522 1635 2464 
Q 1402 2406 1178 2266 
Q 1101 2221 998 2144 
Q 896 2067 790 2009 
Q 685 1952 589 1952 
Q 486 1952 403 2029 
Q 320 2106 320 2182 
Q 320 2266 345 2368 
Q 371 2470 416 2592 
Q 442 2656 461 2717 
Q 480 2778 499 2835 
Q 544 2950 563 3072 
Q 576 3136 592 3286 
Q 608 3437 624 3619 
Q 640 3802 653 3962 
Q 666 4122 672 4198 
Q 736 4333 886 4387 
Q 1037 4442 1222 4454 
Q 1408 4467 1555 4467 
Q 1504 4467 1571 4470 
Q 1638 4474 1779 4480 
Q 1920 4486 2089 4489 
Q 2259 4493 2412 4496 
Q 2566 4499 2662 4499 
L 2701 4499 
Q 2816 4499 2944 4499 
Q 3072 4499 3181 4467 
Q 3283 4442 3334 4387 
Q 3386 4333 3386 4230 
Q 3386 4147 3306 4112 
Q 3226 4077 3123 4070 
Q 3021 4064 2944 4064 
L 1491 4064 
Q 1446 4064 1357 4045 
Q 1331 4038 1302 4035 
Q 1274 4032 1222 4032 
L 1107 3917 
Q 1107 3866 1104 3837 
Q 1101 3808 1094 3782 
Q 1094 3757 1091 3731 
Q 1088 3706 1082 3686 
Q 1062 3622 1027 3475 
Q 992 3328 960 3184 
Q 928 3040 902 2982 
L 902 2752 
Q 1146 2752 1299 2781 
Q 1453 2810 1581 2842 
Q 1690 2874 1808 2899 
Q 1926 2925 2042 2925 
Q 2445 2925 2758 2822 
Q 3072 2720 3248 2493 
Q 3424 2266 3424 1888 
Q 3424 1485 3241 1113 
Q 3059 742 2752 448 
Q 2445 154 2054 -19 
Q 1664 -192 1248 -192 
z
" transform="scale(0.015625)"/>
       </defs>
       <use xlink:href="#FuzzyBubbles-Regular-35"/>
       <use xlink:href="#FuzzyBubbles-Regular-30" x="58.899994"/>
       <use xlink:href="#FuzzyBubbles-Regular-30" x="135.599976"/>
      </g>
     </g>
    </g>
    <g id="ytick_6">
     <g id="line2d_19">
      <path d="M 64.35 118.970736 
L 357.885 118.970736 
" clip-path="url(#p39ebcc4e43)" style="fill: none; stroke: #696969; stroke-opacity: 0.3; stroke-linecap: round"/>
     </g>
     <g id="line2d_20">
      <g>
       <use xlink:href="#m269186274e" x="64.35" y="118.970736" style="fill: #1a1a1a; stroke: #1a1a1a; stroke-width: 1.25"/>
      </g>
     </g>
     <g id="text_10">
      <!-- 600 -->
      <g style="fill: #1a1a1a" transform="translate(31.055625 123.271908) scale(0.11 -0.11)">
       <defs>
        <path id="FuzzyBubbles-Regular-36" d="M 1894 96 
Q 1395 96 1043 333 
Q 691 570 505 966 
Q 320 1363 320 1837 
Q 320 2586 646 3194 
Q 973 3802 1542 4326 
Q 1683 4454 1792 4524 
Q 1901 4595 2029 4595 
Q 2240 4595 2240 4390 
Q 2240 4352 2195 4307 
Q 2150 4262 2118 4237 
Q 2099 4218 2080 4198 
Q 2061 4179 2035 4160 
Q 1875 4013 1712 3859 
Q 1549 3706 1402 3539 
Q 1261 3379 1136 3190 
Q 1011 3002 902 2746 
Q 902 2714 892 2691 
Q 883 2669 870 2637 
Q 858 2592 845 2544 
Q 832 2496 832 2477 
L 832 2272 
Q 992 2272 1088 2310 
Q 1184 2349 1254 2406 
L 1357 2490 
Q 1382 2515 1408 2528 
Q 1690 2675 1926 2761 
Q 2163 2848 2477 2848 
Q 2810 2848 3098 2697 
Q 3386 2547 3565 2288 
Q 3744 2029 3744 1702 
Q 3744 1363 3581 1072 
Q 3418 781 3146 560 
Q 2874 339 2547 217 
Q 2221 96 1894 96 
z
M 1920 531 
Q 2266 531 2563 681 
Q 2861 832 3046 1094 
Q 3232 1357 3232 1702 
Q 3232 2061 3040 2269 
Q 2848 2477 2477 2477 
Q 2138 2477 1872 2323 
Q 1606 2170 1382 1946 
Q 1312 1882 1245 1808 
Q 1178 1734 1114 1664 
Q 1114 1664 1101 1661 
Q 1088 1658 1056 1651 
Q 1024 1645 976 1645 
Q 928 1645 800 1645 
L 800 1472 
Q 800 1242 912 1066 
Q 1024 890 1197 771 
Q 1370 653 1565 592 
Q 1760 531 1920 531 
z
" transform="scale(0.015625)"/>
       </defs>
       <use xlink:href="#FuzzyBubbles-Regular-36"/>
       <use xlink:href="#FuzzyBubbles-Regular-30" x="62.899994"/>
       <use xlink:href="#FuzzyBubbles-Regular-30" x="139.599976"/>
      </g>
     </g>
    </g>
    <g id="ytick_7">
     <g id="line2d_21">
      <path d="M 64.35 80.092036 
L 357.885 80.092036 
" clip-path="url(#p39ebcc4e43)" style="fill: none; stroke: #696969; stroke-opacity: 0.3; stroke-linecap: round"/>
     </g>
     <g id="line2d_22">
      <g>
       <use xlink:href="#m269186274e" x="64.35" y="80.092036" style="fill: #1a1a1a; stroke: #1a1a1a; stroke-width: 1.25"/>
      </g>
     </g>
     <g id="text_11">
      <!-- 700 -->
      <g style="fill: #1a1a1a" transform="translate(31.825625 84.393208) scale(0.11 -0.11)">
       <defs>
        <path id="FuzzyBubbles-Regular-37" d="M 1190 -256 
Q 1056 -256 1001 -160 
Q 947 -64 947 109 
Q 947 371 1011 592 
Q 1075 813 1178 1069 
Q 1350 1504 1520 1875 
Q 1690 2246 1894 2624 
Q 2099 3002 2362 3430 
L 2362 3667 
Q 1990 3667 1728 3635 
Q 1466 3603 1190 3603 
Q 1094 3603 944 3609 
Q 794 3616 643 3648 
Q 493 3680 390 3750 
Q 288 3821 288 3942 
Q 288 4026 352 4080 
Q 416 4134 499 4134 
Q 589 4134 681 4121 
Q 774 4109 864 4090 
Q 973 4070 1075 4051 
Q 1178 4032 1286 4032 
L 1542 4032 
L 3066 4307 
L 3155 4307 
Q 3360 4307 3360 4102 
Q 3360 4070 3363 4044 
Q 3366 4019 3366 4000 
Q 2976 3514 2662 3011 
Q 2349 2509 2061 1952 
Q 1926 1696 1788 1347 
Q 1651 998 1574 717 
L 1574 723 
Q 1562 678 1536 569 
Q 1510 461 1485 339 
Q 1459 230 1436 128 
Q 1414 26 1402 -6 
Q 1344 -256 1190 -256 
z
" transform="scale(0.015625)"/>
       </defs>
       <use xlink:href="#FuzzyBubbles-Regular-37"/>
       <use xlink:href="#FuzzyBubbles-Regular-30" x="55.899994"/>
       <use xlink:href="#FuzzyBubbles-Regular-30" x="132.599976"/>
      </g>
     </g>
    </g>
    <g id="ytick_8">
     <g id="line2d_23">
      <path d="M 64.35 41.213335 
L 357.885 41.213335 
" clip-path="url(#p39ebcc4e43)" style="fill: none; stroke: #696969; stroke-opacity: 0.3; stroke-linecap: round"/>
     </g>
     <g id="line2d_24">
      <g>
       <use xlink:href="#m269186274e" x="64.35" y="41.213335" style="fill: #1a1a1a; stroke: #1a1a1a; stroke-width: 1.25"/>
      </g>
     </g>
     <g id="text_12">
      <!-- 800 -->
      <g style="fill: #1a1a1a" transform="translate(30.572656 45.514507) scale(0.11 -0.11)">
       <defs>
        <path id="FuzzyBubbles-Regular-38" d="M 1914 -160 
Q 1645 -160 1363 -83 
Q 1082 -6 845 144 
Q 608 294 464 512 
Q 320 730 320 1011 
Q 320 1453 627 1747 
Q 934 2042 1440 2266 
L 1440 2387 
Q 1440 2400 1430 2435 
Q 1421 2470 1370 2515 
Q 1357 2528 1334 2547 
Q 1312 2566 1286 2586 
L 1062 2803 
Q 941 2944 851 3104 
Q 762 3264 762 3424 
Q 762 3616 886 3811 
Q 1011 4006 1212 4169 
Q 1414 4333 1644 4432 
Q 1875 4531 2086 4531 
L 2976 4531 
Q 3098 4531 3194 4441 
Q 3290 4352 3309 4218 
L 3309 4038 
Q 3379 3872 3437 3776 
L 3539 3629 
Q 3571 3578 3596 3507 
Q 3622 3437 3622 3290 
Q 3622 3053 3516 2864 
Q 3411 2675 3206 2477 
L 3206 2278 
Q 3546 2067 3770 1849 
Q 3994 1632 3994 1312 
Q 3994 934 3811 656 
Q 3629 378 3325 198 
Q 3021 19 2653 -70 
Q 2285 -160 1914 -160 
z
M 2330 2586 
Q 2483 2586 2675 2675 
Q 2867 2765 3008 2925 
Q 3149 3085 3149 3290 
Q 3149 3514 3037 3696 
Q 2925 3878 2739 3987 
Q 2554 4096 2330 4096 
Q 2176 4096 1990 4051 
Q 1805 4006 1632 3920 
Q 1459 3834 1347 3699 
Q 1235 3565 1235 3392 
Q 1235 3206 1353 3056 
Q 1472 2906 1648 2800 
Q 1824 2694 2009 2640 
Q 2195 2586 2330 2586 
z
M 2054 275 
Q 2227 275 2473 332 
Q 2720 390 2960 502 
Q 3200 614 3360 784 
Q 3520 954 3520 1178 
Q 3520 1408 3382 1568 
Q 3245 1728 3043 1827 
Q 2842 1926 2634 1971 
Q 2426 2016 2291 2016 
Q 2163 2016 1974 1968 
Q 1786 1920 1581 1837 
Q 1376 1754 1197 1635 
Q 1018 1517 906 1376 
Q 794 1235 794 1082 
Q 794 864 922 710 
Q 1050 557 1251 461 
Q 1453 365 1667 320 
Q 1882 275 2054 275 
z
" transform="scale(0.015625)"/>
       </defs>
       <use xlink:href="#FuzzyBubbles-Regular-38"/>
       <use xlink:href="#FuzzyBubbles-Regular-30" x="67.299988"/>
       <use xlink:href="#FuzzyBubbles-Regular-30" x="143.999969"/>
      </g>
     </g>
    </g>
    <g id="text_13">
     <!-- Latency (ms) -->
     <g style="fill: #1a1a1a" transform="translate(23.188281 216.93875) rotate(-90) scale(0.12 -0.12)">
      <defs>
       <path id="FuzzyBubbles-Regular-4c" d="M 614 160 
Q 493 160 445 201 
Q 397 243 378 339 
L 378 627 
Q 378 1158 422 1692 
Q 467 2227 508 2768 
Q 550 3309 550 3846 
Q 550 3994 627 4090 
Q 704 4186 826 4186 
Q 960 4186 1001 4109 
Q 1043 4032 1040 3923 
Q 1037 3814 1037 3712 
Q 1037 3002 966 2275 
Q 896 1549 896 736 
Q 1082 762 1357 794 
Q 1632 826 1904 858 
Q 2176 890 2342 902 
L 2541 902 
Q 2611 902 2720 902 
Q 2829 902 2941 886 
Q 3053 870 3126 819 
Q 3200 768 3200 666 
Q 3200 506 3101 461 
Q 3002 416 2874 416 
Q 2822 416 2771 419 
Q 2720 422 2669 422 
Q 2285 422 1753 361 
Q 1222 301 710 160 
L 614 160 
z
" transform="scale(0.015625)"/>
       <path id="FuzzyBubbles-Regular-74" d="M 1414 -128 
Q 1254 -128 1177 -25 
Q 1101 77 1078 230 
Q 1056 384 1056 531 
Q 1056 602 1059 666 
Q 1062 730 1062 774 
Q 1062 1235 1081 1705 
Q 1101 2176 1101 2733 
Q 864 2733 710 2713 
Q 557 2694 403 2694 
Q 301 2694 262 2732 
Q 224 2771 224 2861 
Q 224 2963 253 3011 
Q 282 3059 326 3072 
L 954 3200 
Q 1094 3232 1155 3328 
Q 1216 3424 1242 3514 
Q 1254 3565 1257 3613 
Q 1261 3661 1267 3718 
Q 1267 3770 1270 3818 
Q 1274 3866 1274 3910 
Q 1286 4115 1340 4211 
Q 1395 4307 1555 4307 
Q 1702 4307 1731 4192 
Q 1760 4077 1760 3974 
Q 1760 3904 1750 3760 
Q 1741 3616 1734 3475 
Q 1728 3334 1722 3270 
L 2746 3270 
Q 2803 3270 2860 3193 
Q 2918 3117 2918 2995 
Q 2918 2957 2886 2896 
Q 2854 2835 2810 2835 
Q 2746 2835 2570 2832 
Q 2394 2829 2192 2822 
Q 1990 2816 1836 2809 
Q 1683 2803 1664 2790 
Q 1632 2406 1616 2051 
Q 1600 1696 1600 1363 
Q 1600 1146 1609 944 
Q 1619 742 1626 544 
Q 1626 512 1632 448 
Q 1638 384 1638 307 
Q 1638 160 1596 16 
Q 1555 -128 1414 -128 
z
" transform="scale(0.015625)"/>
       <path id="FuzzyBubbles-Regular-20" transform="scale(0.015625)"/>
       <path id="FuzzyBubbles-Regular-28" d="M 2387 -224 
Q 2246 -224 2128 -166 
Q 2010 -109 1894 -32 
Q 1856 0 1814 29 
Q 1773 58 1728 90 
Q 1126 506 787 1107 
Q 448 1709 448 2400 
Q 448 2957 649 3485 
Q 851 4013 1225 4451 
Q 1600 4890 2112 5171 
Q 2291 5274 2422 5328 
Q 2554 5382 2707 5382 
Q 2854 5382 2902 5344 
Q 2950 5306 2950 5254 
Q 2950 5120 2733 5011 
Q 2682 4979 2624 4953 
Q 2566 4928 2509 4902 
Q 2464 4877 2409 4851 
Q 2355 4826 2304 4794 
Q 1882 4531 1565 4140 
Q 1248 3750 1075 3292 
Q 902 2835 902 2368 
Q 902 1978 1043 1574 
Q 1184 1171 1466 877 
Q 1523 826 1619 736 
Q 1715 646 1801 569 
Q 1888 493 1907 474 
Q 1958 435 2012 400 
Q 2067 365 2118 333 
Q 2170 307 2227 275 
Q 2285 243 2330 211 
Q 2528 77 2528 -58 
Q 2528 -141 2525 -176 
Q 2522 -211 2490 -224 
L 2387 -224 
z
" transform="scale(0.015625)"/>
       <path id="FuzzyBubbles-Regular-6d" d="M 742 64 
Q 640 64 576 125 
Q 512 186 512 275 
Q 512 499 528 716 
Q 544 934 544 1158 
L 544 1613 
Q 544 1798 537 1987 
Q 531 2176 512 2406 
Q 493 2586 435 2781 
Q 378 2976 378 3117 
Q 378 3392 544 3392 
Q 736 3392 835 3017 
Q 934 2643 1024 1946 
Q 1037 1862 1056 1827 
Q 1075 1792 1094 1792 
Q 1133 1792 1168 1840 
Q 1203 1888 1222 1920 
Q 1274 2016 1341 2144 
Q 1408 2272 1459 2362 
Q 1510 2451 1571 2537 
Q 1632 2624 1696 2701 
Q 1824 2861 1971 2953 
Q 2118 3046 2291 3046 
Q 2445 3046 2528 2963 
Q 2611 2880 2675 2746 
Q 2714 2669 2742 2595 
Q 2771 2522 2797 2451 
Q 2829 2381 2880 2224 
Q 2931 2067 3008 1965 
L 3200 2240 
Q 3315 2406 3427 2569 
Q 3539 2733 3680 2874 
Q 3814 3014 3961 3100 
Q 4109 3187 4269 3187 
Q 4486 3187 4633 3008 
Q 4781 2829 4857 2566 
Q 4934 2304 4941 2054 
L 4979 576 
Q 4986 474 4934 336 
Q 4883 198 4736 198 
Q 4653 198 4595 265 
Q 4538 333 4538 403 
L 4538 1677 
Q 4538 1805 4518 1974 
Q 4499 2144 4457 2304 
Q 4416 2464 4345 2569 
Q 4275 2675 4166 2675 
Q 3994 2675 3853 2512 
Q 3712 2349 3593 2077 
Q 3475 1805 3354 1478 
Q 3232 1062 3145 921 
Q 3059 781 2963 781 
Q 2880 781 2829 819 
Q 2778 858 2739 922 
Q 2694 998 2668 1104 
Q 2643 1210 2624 1293 
L 2502 1856 
Q 2477 1971 2448 2137 
Q 2419 2304 2358 2429 
Q 2298 2554 2176 2554 
Q 2093 2554 2000 2454 
Q 1907 2355 1814 2208 
Q 1722 2061 1645 1907 
Q 1568 1754 1517 1632 
Q 1466 1510 1453 1478 
Q 1440 1440 1376 1280 
Q 1312 1120 1229 918 
Q 1146 717 1078 547 
Q 1011 378 992 326 
Q 928 179 877 121 
Q 826 64 742 64 
z
" transform="scale(0.015625)"/>
       <path id="FuzzyBubbles-Regular-73" d="M 1594 -96 
Q 1421 -96 1190 -77 
Q 960 -58 739 6 
Q 518 70 374 211 
Q 230 352 230 589 
Q 230 896 474 896 
Q 557 896 602 838 
L 659 762 
Q 678 736 694 707 
Q 710 678 736 646 
Q 826 512 992 397 
Q 1158 282 1491 282 
Q 1683 282 1913 342 
Q 2144 403 2307 537 
Q 2470 672 2470 896 
Q 2470 1082 2355 1190 
Q 2240 1299 2099 1363 
Q 2035 1395 1955 1427 
Q 1875 1459 1786 1485 
Q 1702 1510 1619 1536 
Q 1536 1562 1446 1587 
Q 1216 1664 1027 1763 
Q 838 1862 726 2016 
Q 614 2170 614 2406 
Q 614 2701 809 2899 
Q 1005 3098 1302 3197 
Q 1600 3296 1907 3296 
Q 2022 3296 2176 3277 
Q 2330 3258 2477 3206 
Q 2624 3155 2723 3062 
Q 2822 2970 2822 2816 
Q 2822 2739 2793 2684 
Q 2765 2630 2707 2630 
Q 2669 2630 2643 2643 
Q 2362 2771 2173 2828 
Q 1984 2886 1843 2886 
Q 1760 2886 1629 2864 
Q 1498 2842 1370 2794 
Q 1242 2746 1155 2659 
Q 1069 2573 1069 2438 
Q 1069 2195 1440 2035 
Q 1574 1984 1740 1933 
Q 1907 1882 2086 1811 
Q 2317 1728 2509 1613 
Q 2701 1498 2813 1334 
Q 2925 1171 2925 928 
Q 2925 563 2739 336 
Q 2554 109 2253 6 
Q 1952 -96 1594 -96 
z
" transform="scale(0.015625)"/>
       <path id="FuzzyBubbles-Regular-29" d="M 275 -346 
Q 173 -346 134 -314 
Q 96 -282 96 -211 
Q 96 -96 256 0 
Q 301 32 352 54 
Q 403 77 448 96 
Q 499 128 556 150 
Q 614 173 659 198 
Q 1158 467 1452 896 
Q 1747 1325 1875 1827 
Q 2003 2330 2003 2803 
Q 2003 3238 1884 3648 
Q 1766 4058 1485 4410 
Q 1440 4461 1369 4525 
Q 1299 4589 1222 4653 
Q 1139 4723 1046 4793 
Q 954 4864 864 4934 
Q 717 5056 585 5149 
Q 454 5242 454 5286 
Q 454 5395 486 5424 
Q 518 5453 659 5453 
Q 762 5453 874 5405 
Q 986 5357 1101 5274 
Q 1786 4806 2160 4204 
Q 2534 3603 2534 2803 
Q 2534 2259 2348 1734 
Q 2163 1210 1820 758 
Q 1478 307 998 -6 
Q 909 -64 784 -144 
Q 659 -224 524 -285 
Q 390 -346 275 -346 
z
" transform="scale(0.015625)"/>
      </defs>
      <use xlink:href="#FuzzyBubbles-Regular-4c"/>
      <use xlink:href="#FuzzyBubbles-Regular-61" x="52.499985"/>
      <use xlink:href="#FuzzyBubbles-Regular-74" x="113.399979"/>
      <use xlink:href="#FuzzyBubbles-Regular-65" x="161.899963"/>
      <use xlink:href="#FuzzyBubbles-Regular-6e" x="217.299957"/>
      <use xlink:href="#FuzzyBubbles-Regular-63" x="284.699951"/>
      <use xlink:href="#FuzzyBubbles-Regular-79" x="342.599945"/>
      <use xlink:href="#FuzzyBubbles-Regular-20" x="400.499939"/>
      <use xlink:href="#FuzzyBubbles-Regular-28" x="439.59993"/>
      <use xlink:href="#FuzzyBubbles-Regular-6d" x="487.199921"/>
      <use xlink:href="#FuzzyBubbles-Regular-73" x="570.399902"/>
      <use xlink:href="#FuzzyBubbles-Regular-29" x="620.69989"/>
     </g>
    </g>
   </g>
   <g id="patch_3">
    <path d="M 84.530531 192.062693 
L 117.553219 192.062693 
L 117.553219 130.634346 
L 84.530531 130.634346 
L 84.530531 192.062693 
z
" clip-path="url(#p39ebcc4e43)" style="fill: #1f73c3; stroke: #000000; stroke-linejoin: miter"/>
   </g>
   <g id="line2d_25">
    <path d="M 101.041875 192.062693 
L 101.041875 235.995625 
" clip-path="url(#p39ebcc4e43)" style="fill: none; stroke: #000000; stroke-linecap: round"/>
   </g>
   <g id="line2d_26">
    <path d="M 101.041875 130.634346 
L 101.041875 41.990909 
" clip-path="url(#p39ebcc4e43)" style="fill: none; stroke: #000000; stroke-linecap: round"/>
   </g>
   <g id="line2d_27">
    <path d="M 92.786203 235.995625 
L 109.297547 235.995625 
" clip-path="url(#p39ebcc4e43)" style="fill: none; stroke: #000000; stroke-linecap: round"/>
   </g>
   <g id="line2d_28">
    <path d="M 92.786203 41.990909 
L 109.297547 41.990909 
" clip-path="url(#p39ebcc4e43)" style="fill: none; stroke: #000000; stroke-linecap: round"/>
   </g>
   <g id="patch_4">
    <path d="M 157.914281 283.038853 
L 190.936969 283.038853 
L 190.936969 271.375242 
L 157.914281 271.375242 
L 157.914281 283.038853 
z
" clip-path="url(#p39ebcc4e43)" style="fill: #feca19; stroke: #000000; stroke-linejoin: miter"/>
   </g>
   <g id="line2d_29">
    <path d="M 174.425625 283.038853 
L 174.425625 307.143647 
" clip-path="url(#p39ebcc4e43)" style="fill: none; stroke: #000000; stroke-linecap: round"/>
   </g>
   <g id="line2d_30">
    <path d="M 174.425625 271.375242 
L 174.425625 238.717134 
" clip-path="url(#p39ebcc4e43)" style="fill: none; stroke: #000000; stroke-linecap: round"/>
   </g>
   <g id="line2d_31">
    <path d="M 166.169953 307.143647 
L 182.681297 307.143647 
" clip-path="url(#p39ebcc4e43)" style="fill: none; stroke: #000000; stroke-linecap: round"/>
   </g>
   <g id="line2d_32">
    <path d="M 166.169953 238.717134 
L 182.681297 238.717134 
" clip-path="url(#p39ebcc4e43)" style="fill: none; stroke: #000000; stroke-linecap: round"/>
   </g>
   <g id="patch_5">
    <path d="M 231.298031 292.758528 
L 264.320719 292.758528 
L 264.320719 281.872491 
L 231.298031 281.872491 
L 231.298031 292.758528 
z
" clip-path="url(#p39ebcc4e43)" style="fill: #fd8608; stroke: #000000; stroke-linejoin: miter"/>
   </g>
   <g id="line2d_33">
    <path d="M 247.809375 292.758528 
L 247.809375 311.809091 
" clip-path="url(#p39ebcc4e43)" style="fill: none; stroke: #000000; stroke-linecap: round"/>
   </g>
   <g id="line2d_34">
    <path d="M 247.809375 281.872491 
L 247.809375 268.653733 
" clip-path="url(#p39ebcc4e43)" style="fill: none; stroke: #000000; stroke-linecap: round"/>
   </g>
   <g id="line2d_35">
    <path d="M 239.553703 311.809091 
L 256.065047 311.809091 
" clip-path="url(#p39ebcc4e43)" style="fill: none; stroke: #000000; stroke-linecap: round"/>
   </g>
   <g id="line2d_36">
    <path d="M 239.553703 268.653733 
L 256.065047 268.653733 
" clip-path="url(#p39ebcc4e43)" style="fill: none; stroke: #000000; stroke-linecap: round"/>
   </g>
   <g id="patch_6">
    <path d="M 304.681781 193.229054 
L 337.704469 193.229054 
L 337.704469 158.238224 
L 304.681781 158.238224 
L 304.681781 193.229054 
z
" clip-path="url(#p39ebcc4e43)" style="fill: #2da541; stroke: #000000; stroke-linejoin: miter"/>
   </g>
   <g id="line2d_37">
    <path d="M 321.193125 193.229054 
L 321.193125 237.161986 
" clip-path="url(#p39ebcc4e43)" style="fill: none; stroke: #000000; stroke-linecap: round"/>
   </g>
   <g id="line2d_38">
    <path d="M 321.193125 158.238224 
L 321.193125 112.361357 
" clip-path="url(#p39ebcc4e43)" style="fill: none; stroke: #000000; stroke-linecap: round"/>
   </g>
   <g id="line2d_39">
    <path d="M 312.937453 237.161986 
L 329.448797 237.161986 
" clip-path="url(#p39ebcc4e43)" style="fill: none; stroke: #000000; stroke-linecap: round"/>
   </g>
   <g id="line2d_40">
    <path d="M 312.937453 112.361357 
L 329.448797 112.361357 
" clip-path="url(#p39ebcc4e43)" style="fill: none; stroke: #000000; stroke-linecap: round"/>
   </g>
   <g id="line2d_41">
    <path d="M 84.530531 166.013964 
L 117.553219 166.013964 
" clip-path="url(#p39ebcc4e43)" style="fill: none; stroke: #dd8452; stroke-linecap: round"/>
   </g>
   <g id="line2d_42">
    <path d="M 157.914281 276.429473 
L 190.936969 276.429473 
" clip-path="url(#p39ebcc4e43)" style="fill: none; stroke: #dd8452; stroke-linecap: round"/>
   </g>
   <g id="line2d_43">
    <path d="M 231.298031 287.31551 
L 264.320719 287.31551 
" clip-path="url(#p39ebcc4e43)" style="fill: none; stroke: #dd8452; stroke-linecap: round"/>
   </g>
   <g id="line2d_44">
    <path d="M 304.681781 171.456982 
L 337.704469 171.456982 
" clip-path="url(#p39ebcc4e43)" style="fill: none; stroke: #dd8452; stroke-linecap: round"/>
   </g>
   <g id="patch_7">
    <path d="M 64.35 325.3 
L 64.35 28.5 
" style="fill: none; stroke: #1a1a1a; stroke-width: 1.25; stroke-linejoin: miter; stroke-linecap: square"/>
   </g>
   <g id="patch_8">
    <path d="M 64.35 325.3 
L 357.885 325.3 
" style="fill: none; stroke: #1a1a1a; stroke-width: 1.25; stroke-linejoin: miter; stroke-linecap: square"/>
   </g>
   <g id="text_14">
    <!-- Inference latency -->
    <g style="fill: #1a1a1a" transform="translate(157.3725 22.5) scale(0.12 -0.12)">
     <defs>
      <path id="FuzzyBubbles-Regular-49" d="M 506 32 
Q 390 32 355 61 
Q 320 90 320 198 
Q 320 314 368 355 
Q 416 397 474 422 
Q 531 448 582 473 
Q 634 499 678 544 
Q 794 646 794 819 
Q 794 909 790 1053 
Q 787 1197 787 1363 
Q 787 1626 790 1910 
Q 794 2195 806 2444 
Q 819 2694 838 2835 
Q 858 3002 874 3168 
Q 890 3334 909 3507 
L 909 3718 
Q 845 3789 800 3824 
Q 755 3859 717 3885 
L 595 3962 
Q 550 3987 528 4016 
Q 506 4045 506 4109 
Q 506 4237 646 4237 
Q 755 4237 848 4221 
Q 941 4205 1024 4205 
L 1094 4205 
Q 1126 4205 1254 4221 
Q 1382 4237 1523 4256 
Q 1651 4275 1766 4291 
Q 1882 4307 1907 4307 
L 1946 4307 
Q 2048 4307 2086 4272 
Q 2125 4237 2125 4141 
Q 2125 4038 2089 4006 
Q 2054 3974 1990 3962 
Q 1939 3949 1881 3936 
Q 1824 3923 1773 3910 
Q 1709 3891 1641 3852 
Q 1574 3814 1510 3725 
Q 1466 3482 1424 3242 
Q 1382 3002 1350 2758 
Q 1274 2099 1274 1414 
Q 1274 1293 1277 1203 
Q 1280 1114 1286 1011 
Q 1293 909 1312 749 
Q 1350 614 1542 576 
Q 1587 570 1641 560 
Q 1696 550 1754 538 
Q 1850 518 1894 483 
Q 1939 448 1939 365 
Q 1939 301 1891 259 
Q 1843 218 1722 186 
Q 1664 173 1600 166 
Q 1536 160 1472 154 
L 1229 134 
Q 1210 128 1178 128 
Q 1146 128 1101 115 
Q 1062 109 1014 99 
Q 966 90 915 77 
Q 832 64 752 48 
Q 672 32 646 32 
L 506 32 
z
" transform="scale(0.015625)"/>
      <path id="FuzzyBubbles-Regular-72" d="M 557 -64 
Q 486 -64 451 0 
Q 416 64 403 147 
Q 390 230 378 288 
L 378 794 
Q 378 1178 413 1581 
Q 448 1984 448 2368 
Q 448 2554 425 2739 
Q 403 2925 378 3053 
Q 371 3085 368 3110 
Q 365 3136 365 3162 
Q 365 3245 416 3270 
Q 467 3296 589 3296 
Q 736 3296 806 3168 
Q 877 3040 912 2870 
Q 947 2701 979 2566 
Q 1165 2790 1382 2892 
Q 1600 2995 1747 3072 
Q 1888 3142 2032 3184 
Q 2176 3226 2355 3226 
Q 2534 3226 2691 3126 
Q 2848 3027 2848 2912 
Q 2848 2778 2765 2714 
Q 2682 2650 2573 2650 
Q 2541 2650 2512 2659 
Q 2483 2669 2451 2675 
Q 2406 2694 2352 2707 
Q 2298 2720 2246 2720 
Q 2048 2720 1862 2646 
Q 1677 2573 1549 2502 
Q 1325 2381 1200 2230 
Q 1075 2080 992 1952 
Q 947 1709 934 1478 
Q 922 1248 915 1120 
Q 909 986 902 838 
Q 896 691 883 544 
Q 870 390 844 249 
Q 819 109 755 22 
Q 691 -64 557 -64 
z
" transform="scale(0.015625)"/>
     </defs>
     <use xlink:href="#FuzzyBubbles-Regular-49"/>
     <use xlink:href="#FuzzyBubbles-Regular-6e" x="38.599991"/>
     <use xlink:href="#FuzzyBubbles-Regular-66" x="105.999985"/>
     <use xlink:href="#FuzzyBubbles-Regular-65" x="150.499969"/>
     <use xlink:href="#FuzzyBubbles-Regular-72" x="205.899963"/>
     <use xlink:href="#FuzzyBubbles-Regular-65" x="246.399948"/>
     <use xlink:href="#FuzzyBubbles-Regular-6e" x="301.799942"/>
     <use xlink:href="#FuzzyBubbles-Regular-63" x="369.199936"/>
     <use xlink:href="#FuzzyBubbles-Regular-65" x="427.09993"/>
     <use xlink:href="#FuzzyBubbles-Regular-20" x="482.499924"/>
     <use xlink:href="#FuzzyBubbles-Regular-6c" x="521.599915"/>
     <use xlink:href="#FuzzyBubbles-Regular-61" x="547.699905"/>
     <use xlink:href="#FuzzyBubbles-Regular-74" x="608.599899"/>
     <use xlink:href="#FuzzyBubbles-Regular-65" x="657.099884"/>
     <use xlink:href="#FuzzyBubbles-Regular-6e" x="712.499878"/>
     <use xlink:href="#FuzzyBubbles-Regular-63" x="779.899872"/>
     <use xlink:href="#FuzzyBubbles-Regular-79" x="837.799866"/>
    </g>
   </g>
  </g>
  <g id="axes_2">
   <g id="patch_9">
    <path d="M 413.505 325.3 
L 707.04 325.3 
L 707.04 28.5 
L 413.505 28.5 
L 413.505 325.3 
z
" style="fill: none"/>
   </g>
   <g id="matplotlib.axis_3">
    <g id="xtick_5">
     <g id="line2d_45">
      <path d="M 435.186562 325.3 
L 435.186562 28.5 
" clip-path="url(#p558710c8fd)" style="fill: none; stroke: #696969; stroke-opacity: 0.3; stroke-linecap: round"/>
     </g>
     <g id="line2d_46">
      <g>
       <use xlink:href="#mfcd88085e9" x="435.186562" y="325.3" style="fill: #1a1a1a; stroke: #1a1a1a; stroke-width: 1.25"/>
      </g>
     </g>
     <g id="text_15">
      <!-- Nyckel -->
      <g style="fill: #1a1a1a" transform="translate(417.145703 343.402344) scale(0.11 -0.11)">
       <use xlink:href="#FuzzyBubbles-Regular-4e"/>
       <use xlink:href="#FuzzyBubbles-Regular-79" x="70.299988"/>
       <use xlink:href="#FuzzyBubbles-Regular-63" x="128.199982"/>
       <use xlink:href="#FuzzyBubbles-Regular-6b" x="186.099976"/>
       <use xlink:href="#FuzzyBubbles-Regular-65" x="246.499969"/>
       <use xlink:href="#FuzzyBubbles-Regular-6c" x="301.899963"/>
      </g>
     </g>
    </g>
    <g id="xtick_6">
     <g id="line2d_47">
      <path d="M 518.577187 325.3 
L 518.577187 28.5 
" clip-path="url(#p558710c8fd)" style="fill: none; stroke: #696969; stroke-opacity: 0.3; stroke-linecap: round"/>
     </g>
     <g id="line2d_48">
      <g>
       <use xlink:href="#mfcd88085e9" x="518.577187" y="325.3" style="fill: #1a1a1a; stroke: #1a1a1a; stroke-width: 1.25"/>
      </g>
     </g>
     <g id="text_16">
      <!-- Huggingface -->
      <g style="fill: #1a1a1a" transform="translate(484.034609 343.402344) scale(0.11 -0.11)">
       <use xlink:href="#FuzzyBubbles-Regular-48"/>
       <use xlink:href="#FuzzyBubbles-Regular-75" x="75.199982"/>
       <use xlink:href="#FuzzyBubbles-Regular-67" x="140.499969"/>
       <use xlink:href="#FuzzyBubbles-Regular-67" x="198.899963"/>
       <use xlink:href="#FuzzyBubbles-Regular-69" x="257.299957"/>
       <use xlink:href="#FuzzyBubbles-Regular-6e" x="283.499954"/>
       <use xlink:href="#FuzzyBubbles-Regular-67" x="350.899948"/>
       <use xlink:href="#FuzzyBubbles-Regular-66" x="409.299942"/>
       <use xlink:href="#FuzzyBubbles-Regular-61" x="453.799927"/>
       <use xlink:href="#FuzzyBubbles-Regular-63" x="514.699921"/>
       <use xlink:href="#FuzzyBubbles-Regular-65" x="572.599915"/>
      </g>
     </g>
    </g>
    <g id="xtick_7">
     <g id="line2d_49">
      <path d="M 601.967812 325.3 
L 601.967812 28.5 
" clip-path="url(#p558710c8fd)" style="fill: none; stroke: #696969; stroke-opacity: 0.3; stroke-linecap: round"/>
     </g>
     <g id="line2d_50">
      <g>
       <use xlink:href="#mfcd88085e9" x="601.967812" y="325.3" style="fill: #1a1a1a; stroke: #1a1a1a; stroke-width: 1.25"/>
      </g>
     </g>
     <g id="text_17">
      <!-- AWS -->
      <g style="fill: #1a1a1a" transform="translate(589.906484 343.402344) scale(0.11 -0.11)">
       <use xlink:href="#FuzzyBubbles-Regular-41"/>
       <use xlink:href="#FuzzyBubbles-Regular-57" x="71.799988"/>
       <use xlink:href="#FuzzyBubbles-Regular-53" x="160.899979"/>
      </g>
     </g>
    </g>
    <g id="xtick_8">
     <g id="line2d_51">
      <path d="M 685.358437 325.3 
L 685.358437 28.5 
" clip-path="url(#p558710c8fd)" style="fill: none; stroke: #696969; stroke-opacity: 0.3; stroke-linecap: round"/>
     </g>
     <g id="line2d_52">
      <g>
       <use xlink:href="#mfcd88085e9" x="685.358437" y="325.3" style="fill: #1a1a1a; stroke: #1a1a1a; stroke-width: 1.25"/>
      </g>
     </g>
     <g id="text_18">
      <!-- Google -->
      <g style="fill: #1a1a1a" transform="translate(666.559609 343.402344) scale(0.11 -0.11)">
       <use xlink:href="#FuzzyBubbles-Regular-47"/>
       <use xlink:href="#FuzzyBubbles-Regular-6f" x="66.299988"/>
       <use xlink:href="#FuzzyBubbles-Regular-6f" x="134.099976"/>
       <use xlink:href="#FuzzyBubbles-Regular-67" x="201.899963"/>
       <use xlink:href="#FuzzyBubbles-Regular-6c" x="260.299957"/>
       <use xlink:href="#FuzzyBubbles-Regular-65" x="286.399948"/>
      </g>
     </g>
    </g>
   </g>
   <g id="matplotlib.axis_4">
    <g id="ytick_9">
     <g id="line2d_53">
      <path d="M 413.505 325.3 
L 707.04 325.3 
" clip-path="url(#p558710c8fd)" style="fill: none; stroke: #696969; stroke-opacity: 0.3; stroke-linecap: round"/>
     </g>
     <g id="line2d_54">
      <g>
       <use xlink:href="#m269186274e" x="413.505" y="325.3" style="fill: #1a1a1a; stroke: #1a1a1a; stroke-width: 1.25"/>
      </g>
     </g>
     <g id="text_19">
      <!-- 0 -->
      <g style="fill: #1a1a1a" transform="translate(395.567656 329.601172) scale(0.11 -0.11)">
       <use xlink:href="#FuzzyBubbles-Regular-30"/>
      </g>
     </g>
    </g>
    <g id="ytick_10">
     <g id="line2d_55">
      <path d="M 413.505 274.642891 
L 707.04 274.642891 
" clip-path="url(#p558710c8fd)" style="fill: none; stroke: #696969; stroke-opacity: 0.3; stroke-linecap: round"/>
     </g>
     <g id="line2d_56">
      <g>
       <use xlink:href="#m269186274e" x="413.505" y="274.642891" style="fill: #1a1a1a; stroke: #1a1a1a; stroke-width: 1.25"/>
      </g>
     </g>
     <g id="text_20">
      <!-- 5 -->
      <g style="fill: #1a1a1a" transform="translate(397.525312 278.944063) scale(0.11 -0.11)">
       <use xlink:href="#FuzzyBubbles-Regular-35"/>
      </g>
     </g>
    </g>
    <g id="ytick_11">
     <g id="line2d_57">
      <path d="M 413.505 223.985783 
L 707.04 223.985783 
" clip-path="url(#p558710c8fd)" style="fill: none; stroke: #696969; stroke-opacity: 0.3; stroke-linecap: round"/>
     </g>
     <g id="line2d_58">
      <g>
       <use xlink:href="#m269186274e" x="413.505" y="223.985783" style="fill: #1a1a1a; stroke: #1a1a1a; stroke-width: 1.25"/>
      </g>
     </g>
     <g id="text_21">
      <!-- 10 -->
      <g style="fill: #1a1a1a" transform="translate(390.662344 228.286954) scale(0.11 -0.11)">
       <use xlink:href="#FuzzyBubbles-Regular-31"/>
       <use xlink:href="#FuzzyBubbles-Regular-30" x="44.599991"/>
      </g>
     </g>
    </g>
    <g id="ytick_12">
     <g id="line2d_59">
      <path d="M 413.505 173.328674 
L 707.04 173.328674 
" clip-path="url(#p558710c8fd)" style="fill: none; stroke: #696969; stroke-opacity: 0.3; stroke-linecap: round"/>
     </g>
     <g id="line2d_60">
      <g>
       <use xlink:href="#m269186274e" x="413.505" y="173.328674" style="fill: #1a1a1a; stroke: #1a1a1a; stroke-width: 1.25"/>
      </g>
     </g>
     <g id="text_22">
      <!-- 15 -->
      <g style="fill: #1a1a1a" transform="translate(392.62 177.629846) scale(0.11 -0.11)">
       <use xlink:href="#FuzzyBubbles-Regular-31"/>
       <use xlink:href="#FuzzyBubbles-Regular-35" x="44.599991"/>
      </g>
     </g>
    </g>
    <g id="ytick_13">
     <g id="line2d_61">
      <path d="M 413.505 122.671565 
L 707.04 122.671565 
" clip-path="url(#p558710c8fd)" style="fill: none; stroke: #696969; stroke-opacity: 0.3; stroke-linecap: round"/>
     </g>
     <g id="line2d_62">
      <g>
       <use xlink:href="#m269186274e" x="413.505" y="122.671565" style="fill: #1a1a1a; stroke: #1a1a1a; stroke-width: 1.25"/>
      </g>
     </g>
     <g id="text_23">
      <!-- 20 -->
      <g style="fill: #1a1a1a" transform="translate(389.197969 126.972737) scale(0.11 -0.11)">
       <use xlink:href="#FuzzyBubbles-Regular-32"/>
       <use xlink:href="#FuzzyBubbles-Regular-30" x="57.899994"/>
      </g>
     </g>
    </g>
    <g id="ytick_14">
     <g id="line2d_63">
      <path d="M 413.505 72.014456 
L 707.04 72.014456 
" clip-path="url(#p558710c8fd)" style="fill: none; stroke: #696969; stroke-opacity: 0.3; stroke-linecap: round"/>
     </g>
     <g id="line2d_64">
      <g>
       <use xlink:href="#m269186274e" x="413.505" y="72.014456" style="fill: #1a1a1a; stroke: #1a1a1a; stroke-width: 1.25"/>
      </g>
     </g>
     <g id="text_24">
      <!-- 25 -->
      <g style="fill: #1a1a1a" transform="translate(391.155625 76.315628) scale(0.11 -0.11)">
       <use xlink:href="#FuzzyBubbles-Regular-32"/>
       <use xlink:href="#FuzzyBubbles-Regular-35" x="57.899994"/>
      </g>
     </g>
    </g>
    <g id="text_25">
     <!-- Requests per second -->
     <g style="fill: #1a1a1a" transform="translate(380.853594 239.9975) rotate(-90) scale(0.12 -0.12)">
      <defs>
       <path id="FuzzyBubbles-Regular-52" d="M 902 0 
Q 794 0 755 48 
Q 717 96 672 205 
Q 659 230 659 243 
Q 653 333 653 429 
Q 653 525 653 614 
Q 653 1203 717 1785 
Q 781 2368 781 2950 
Q 781 3117 777 3280 
Q 774 3443 742 3603 
L 730 3667 
L 666 3686 
Q 525 3731 432 3788 
Q 339 3846 339 3962 
Q 339 4032 483 4121 
Q 627 4211 883 4269 
Q 1126 4320 1382 4329 
Q 1638 4339 1779 4339 
Q 2118 4339 2470 4281 
Q 2822 4224 3129 4093 
Q 3437 3962 3651 3741 
Q 3866 3520 3923 3187 
Q 3942 3104 3942 3002 
Q 3942 2669 3772 2461 
Q 3603 2253 3331 2115 
Q 3059 1978 2739 1856 
L 2566 1792 
L 2739 1638 
Q 2810 1574 2890 1507 
Q 2970 1440 3040 1363 
L 3328 1050 
Q 3456 909 3577 739 
Q 3699 570 3699 410 
Q 3699 134 3424 134 
Q 3334 134 3315 154 
Q 3315 154 3312 157 
Q 3309 160 3302 160 
Q 3296 173 3270 198 
Q 3251 218 3225 243 
Q 3200 269 3181 301 
Q 3034 563 2854 764 
Q 2675 966 2374 1222 
Q 2291 1299 2150 1388 
Q 2010 1478 1875 1581 
Q 1734 1690 1657 1786 
Q 1581 1882 1581 1952 
Q 1581 1997 1632 1990 
Q 1683 1984 1805 2035 
Q 1926 2086 2080 2128 
Q 2234 2170 2394 2214 
Q 2554 2266 2717 2320 
Q 2880 2374 3014 2458 
Q 3149 2547 3299 2697 
Q 3450 2848 3450 3027 
Q 3450 3226 3331 3373 
Q 3213 3520 3043 3619 
Q 2874 3718 2720 3757 
Q 2534 3808 2281 3827 
Q 2029 3846 1824 3846 
L 1421 3846 
Q 1344 3846 1344 3763 
L 1171 685 
Q 1165 640 1168 579 
Q 1171 518 1165 454 
Q 1152 333 1126 218 
Q 1069 0 902 0 
z
" transform="scale(0.015625)"/>
       <path id="FuzzyBubbles-Regular-71" d="M 2963 -2317 
Q 2944 -2317 2921 -2317 
Q 2899 -2317 2874 -2310 
Q 2662 -2266 2553 -2131 
Q 2445 -1997 2406 -1817 
Q 2368 -1638 2368 -1459 
Q 2368 -1139 2416 -710 
Q 2464 -282 2550 176 
Q 2637 634 2752 1024 
Q 2541 717 2237 505 
Q 1933 294 1625 185 
Q 1318 77 1088 77 
Q 826 77 624 221 
Q 422 365 307 592 
Q 192 819 192 1075 
Q 192 1517 387 1917 
Q 582 2317 915 2627 
Q 1248 2938 1673 3117 
Q 2099 3296 2560 3296 
Q 2854 3296 3078 3161 
Q 3302 3027 3386 2797 
Q 3398 2758 3411 2704 
Q 3424 2650 3424 2598 
Q 3424 2528 3395 2457 
Q 3366 2387 3296 2336 
Q 3398 2253 3443 2166 
Q 3488 2080 3488 1933 
Q 3488 1715 3427 1465 
Q 3366 1216 3296 976 
Q 3226 736 3181 544 
Q 3123 301 3049 -28 
Q 2976 -358 2921 -684 
Q 2867 -1011 2867 -1261 
Q 2867 -1414 2896 -1520 
Q 2925 -1626 2989 -1664 
Q 3098 -1728 3158 -1840 
Q 3219 -1952 3219 -2061 
Q 3219 -2163 3155 -2240 
Q 3091 -2317 2963 -2317 
z
M 1114 506 
Q 1325 506 1529 614 
Q 1734 723 1926 896 
Q 2118 1069 2285 1261 
Q 2419 1408 2537 1545 
Q 2656 1683 2797 1843 
Q 2912 1984 3011 2128 
Q 3110 2272 3110 2419 
Q 3110 2496 3085 2554 
Q 3014 2739 2870 2835 
Q 2726 2931 2624 2931 
Q 2278 2931 1929 2780 
Q 1581 2630 1286 2377 
Q 992 2125 813 1805 
Q 634 1485 634 1139 
Q 634 1011 672 864 
Q 710 717 812 611 
Q 915 506 1114 506 
z
" transform="scale(0.015625)"/>
       <path id="FuzzyBubbles-Regular-70" d="M 646 -1805 
Q 538 -1805 506 -1693 
Q 474 -1581 474 -1446 
Q 474 -1395 477 -1340 
Q 480 -1286 480 -1242 
Q 480 -589 537 9 
Q 595 608 621 1171 
Q 627 1318 633 1536 
Q 640 1754 643 1952 
Q 646 2150 640 2240 
Q 518 2240 448 2329 
Q 378 2419 378 2502 
Q 378 2566 438 2672 
Q 499 2778 621 2822 
Q 634 2854 634 2889 
Q 634 2925 634 2970 
Q 634 3110 611 3286 
Q 589 3462 576 3546 
Q 570 3584 653 3629 
Q 736 3674 819 3674 
Q 934 3674 979 3597 
Q 1024 3520 1037 3405 
Q 1050 3290 1069 3174 
Q 1357 3290 1536 3347 
Q 1715 3405 1875 3424 
Q 2035 3443 2259 3443 
Q 2675 3443 3017 3308 
Q 3360 3174 3565 2908 
Q 3770 2643 3770 2246 
Q 3770 1869 3613 1491 
Q 3456 1114 3184 803 
Q 2912 493 2560 307 
Q 2208 122 1818 122 
Q 1715 122 1619 144 
Q 1523 166 1421 179 
Q 1382 186 1344 189 
Q 1306 192 1274 192 
L 1062 192 
Q 1062 45 1062 -217 
Q 1062 -480 1052 -774 
Q 1043 -1069 1024 -1325 
Q 1011 -1523 905 -1664 
Q 800 -1805 646 -1805 
z
M 1786 550 
Q 2106 550 2384 700 
Q 2662 851 2876 1100 
Q 3091 1350 3209 1641 
Q 3328 1933 3328 2214 
Q 3328 2522 3174 2704 
Q 3021 2886 2787 2966 
Q 2554 3046 2298 3046 
Q 2170 3046 2029 3036 
Q 1888 3027 1760 2970 
Q 1478 2848 1328 2704 
Q 1178 2560 1126 2362 
Q 1101 2272 1094 2176 
Q 1088 2080 1088 1978 
Q 1088 1875 1094 1760 
Q 1101 1645 1101 1517 
L 1101 986 
Q 1101 838 1216 739 
Q 1331 640 1491 595 
Q 1651 550 1786 550 
z
" transform="scale(0.015625)"/>
       <path id="FuzzyBubbles-Regular-64" d="M 1101 -96 
Q 653 19 422 377 
Q 192 736 192 1171 
Q 192 1581 374 1961 
Q 557 2342 864 2646 
Q 1171 2950 1564 3126 
Q 1958 3302 2381 3302 
Q 2630 3302 2771 3289 
Q 2912 3277 3091 3206 
Q 3098 3302 3123 3475 
Q 3149 3648 3181 3843 
Q 3213 4038 3232 4192 
Q 3251 4333 3273 4477 
Q 3296 4621 3341 4755 
Q 3443 5037 3635 5037 
Q 3782 5037 3782 4813 
Q 3782 4781 3779 4739 
Q 3776 4698 3770 4646 
Q 3667 3872 3619 3113 
Q 3571 2355 3571 1600 
Q 3571 1280 3590 969 
Q 3610 659 3635 333 
Q 3648 160 3574 61 
Q 3501 -38 3411 -38 
Q 3283 -38 3238 122 
Q 3174 326 3136 547 
Q 3098 768 3085 915 
Q 2848 653 2573 422 
Q 2298 192 2000 48 
Q 1702 -96 1389 -96 
L 1101 -96 
z
M 1350 301 
Q 1658 301 1962 457 
Q 2266 614 2522 867 
Q 2778 1120 2931 1411 
Q 3085 1702 3085 1971 
Q 3085 2214 3011 2419 
Q 2938 2624 2800 2749 
Q 2662 2874 2470 2874 
Q 2112 2874 1789 2733 
Q 1466 2592 1213 2349 
Q 960 2106 816 1792 
Q 672 1478 672 1139 
L 672 851 
Q 736 608 902 454 
Q 1069 301 1350 301 
z
" transform="scale(0.015625)"/>
      </defs>
      <use xlink:href="#FuzzyBubbles-Regular-52"/>
      <use xlink:href="#FuzzyBubbles-Regular-65" x="66.299988"/>
      <use xlink:href="#FuzzyBubbles-Regular-71" x="121.699982"/>
      <use xlink:href="#FuzzyBubbles-Regular-75" x="182.099976"/>
      <use xlink:href="#FuzzyBubbles-Regular-65" x="247.399963"/>
      <use xlink:href="#FuzzyBubbles-Regular-73" x="302.799957"/>
      <use xlink:href="#FuzzyBubbles-Regular-74" x="353.099945"/>
      <use xlink:href="#FuzzyBubbles-Regular-73" x="401.59993"/>
      <use xlink:href="#FuzzyBubbles-Regular-20" x="451.899918"/>
      <use xlink:href="#FuzzyBubbles-Regular-70" x="490.999908"/>
      <use xlink:href="#FuzzyBubbles-Regular-65" x="552.899902"/>
      <use xlink:href="#FuzzyBubbles-Regular-72" x="608.299896"/>
      <use xlink:href="#FuzzyBubbles-Regular-20" x="648.799881"/>
      <use xlink:href="#FuzzyBubbles-Regular-73" x="687.899872"/>
      <use xlink:href="#FuzzyBubbles-Regular-65" x="738.19986"/>
      <use xlink:href="#FuzzyBubbles-Regular-63" x="793.599854"/>
      <use xlink:href="#FuzzyBubbles-Regular-6f" x="851.499847"/>
      <use xlink:href="#FuzzyBubbles-Regular-6e" x="919.299835"/>
      <use xlink:href="#FuzzyBubbles-Regular-64" x="986.699829"/>
     </g>
    </g>
   </g>
   <g id="patch_10">
    <path d="M 426.8475 325.3 
L 443.525625 325.3 
L 443.525625 170.289247 
L 426.8475 170.289247 
z
" clip-path="url(#p558710c8fd)" style="fill: #1f73c3; stroke: #ffffff; stroke-linejoin: miter"/>
   </g>
   <g id="patch_11">
    <path d="M 510.238125 325.3 
L 526.91625 325.3 
L 526.91625 42.633333 
L 510.238125 42.633333 
z
" clip-path="url(#p558710c8fd)" style="fill: #feca19; stroke: #ffffff; stroke-linejoin: miter"/>
   </g>
   <g id="patch_12">
    <path d="M 593.62875 325.3 
L 610.306875 325.3 
L 610.306875 101.395579 
L 593.62875 101.395579 
z
" clip-path="url(#p558710c8fd)" style="fill: #fd8608; stroke: #ffffff; stroke-linejoin: miter"/>
   </g>
   <g id="patch_13">
    <path d="M 677.019375 325.3 
L 693.6975 325.3 
L 693.6975 218.920072 
L 677.019375 218.920072 
z
" clip-path="url(#p558710c8fd)" style="fill: #2da541; stroke: #ffffff; stroke-linejoin: miter"/>
   </g>
   <g id="patch_14">
    <path d="M 413.505 325.3 
L 413.505 28.5 
" style="fill: none; stroke: #1a1a1a; stroke-width: 1.25; stroke-linejoin: miter; stroke-linecap: square"/>
   </g>
   <g id="patch_15">
    <path d="M 413.505 325.3 
L 707.04 325.3 
" style="fill: none; stroke: #1a1a1a; stroke-width: 1.25; stroke-linejoin: miter; stroke-linecap: square"/>
   </g>
   <g id="text_26">
    <!-- Inference throughput at 10 concurrent requests -->
    <g style="fill: #1a1a1a" transform="translate(411.265313 22.5) scale(0.12 -0.12)">
     <defs>
      <path id="FuzzyBubbles-Regular-68" d="M 614 32 
Q 378 32 378 326 
Q 378 736 429 1155 
Q 480 1574 480 1971 
Q 480 2426 464 2890 
Q 448 3354 429 3754 
Q 410 4154 390 4410 
Q 390 4448 387 4483 
Q 384 4518 384 4550 
Q 384 4678 429 4761 
Q 474 4845 614 4845 
Q 749 4845 816 4707 
Q 883 4570 905 4390 
Q 928 4211 928 4090 
Q 928 3866 921 3555 
Q 915 3245 915 2925 
Q 915 2560 921 2221 
Q 928 1882 944 1658 
Q 960 1434 986 1402 
Q 1171 1606 1305 1779 
Q 1440 1952 1562 2112 
Q 1632 2208 1725 2323 
Q 1818 2438 1914 2534 
Q 2099 2733 2307 2851 
Q 2515 2970 2771 2970 
Q 3091 2970 3289 2730 
Q 3488 2490 3533 2157 
L 3738 723 
L 3738 531 
Q 3738 410 3725 288 
Q 3712 166 3565 166 
Q 3360 166 3318 268 
Q 3277 371 3277 512 
Q 3277 1088 3203 1488 
Q 3130 1888 3098 2061 
Q 3053 2291 2953 2416 
Q 2854 2541 2739 2541 
Q 2560 2541 2413 2416 
Q 2266 2291 2189 2189 
Q 1965 1907 1734 1571 
Q 1504 1235 1286 899 
Q 1069 563 877 275 
Q 838 218 774 125 
Q 710 32 614 32 
z
" transform="scale(0.015625)"/>
     </defs>
     <use xlink:href="#FuzzyBubbles-Regular-49"/>
     <use xlink:href="#FuzzyBubbles-Regular-6e" x="38.599991"/>
     <use xlink:href="#FuzzyBubbles-Regular-66" x="105.999985"/>
     <use xlink:href="#FuzzyBubbles-Regular-65" x="150.499969"/>
     <use xlink:href="#FuzzyBubbles-Regular-72" x="205.899963"/>
     <use xlink:href="#FuzzyBubbles-Regular-65" x="246.399948"/>
     <use xlink:href="#FuzzyBubbles-Regular-6e" x="301.799942"/>
     <use xlink:href="#FuzzyBubbles-Regular-63" x="369.199936"/>
     <use xlink:href="#FuzzyBubbles-Regular-65" x="427.09993"/>
     <use xlink:href="#FuzzyBubbles-Regular-20" x="482.499924"/>
     <use xlink:href="#FuzzyBubbles-Regular-74" x="521.599915"/>
     <use xlink:href="#FuzzyBubbles-Regular-68" x="570.099899"/>
     <use xlink:href="#FuzzyBubbles-Regular-72" x="631.999893"/>
     <use xlink:href="#FuzzyBubbles-Regular-6f" x="672.499878"/>
     <use xlink:href="#FuzzyBubbles-Regular-75" x="740.299866"/>
     <use xlink:href="#FuzzyBubbles-Regular-67" x="805.599854"/>
     <use xlink:href="#FuzzyBubbles-Regular-68" x="863.999847"/>
     <use xlink:href="#FuzzyBubbles-Regular-70" x="925.899841"/>
     <use xlink:href="#FuzzyBubbles-Regular-75" x="987.799835"/>
     <use xlink:href="#FuzzyBubbles-Regular-74" x="1053.099823"/>
     <use xlink:href="#FuzzyBubbles-Regular-20" x="1101.599808"/>
     <use xlink:href="#FuzzyBubbles-Regular-61" x="1140.699799"/>
     <use xlink:href="#FuzzyBubbles-Regular-74" x="1201.599792"/>
     <use xlink:href="#FuzzyBubbles-Regular-20" x="1250.099777"/>
     <use xlink:href="#FuzzyBubbles-Regular-31" x="1289.199768"/>
     <use xlink:href="#FuzzyBubbles-Regular-30" x="1333.799759"/>
     <use xlink:href="#FuzzyBubbles-Regular-20" x="1410.499741"/>
     <use xlink:href="#FuzzyBubbles-Regular-63" x="1449.599731"/>
     <use xlink:href="#FuzzyBubbles-Regular-6f" x="1507.499725"/>
     <use xlink:href="#FuzzyBubbles-Regular-6e" x="1575.299713"/>
     <use xlink:href="#FuzzyBubbles-Regular-63" x="1642.699707"/>
     <use xlink:href="#FuzzyBubbles-Regular-75" x="1700.599701"/>
     <use xlink:href="#FuzzyBubbles-Regular-72" x="1765.899689"/>
     <use xlink:href="#FuzzyBubbles-Regular-72" x="1806.399673"/>
     <use xlink:href="#FuzzyBubbles-Regular-65" x="1846.899658"/>
     <use xlink:href="#FuzzyBubbles-Regular-6e" x="1902.299652"/>
     <use xlink:href="#FuzzyBubbles-Regular-74" x="1969.699646"/>
     <use xlink:href="#FuzzyBubbles-Regular-20" x="2018.199631"/>
     <use xlink:href="#FuzzyBubbles-Regular-72" x="2057.299622"/>
     <use xlink:href="#FuzzyBubbles-Regular-65" x="2097.799606"/>
     <use xlink:href="#FuzzyBubbles-Regular-71" x="2153.1996"/>
     <use xlink:href="#FuzzyBubbles-Regular-75" x="2213.599594"/>
     <use xlink:href="#FuzzyBubbles-Regular-65" x="2278.899582"/>
     <use xlink:href="#FuzzyBubbles-Regular-73" x="2334.299576"/>
     <use xlink:href="#FuzzyBubbles-Regular-74" x="2384.599564"/>
     <use xlink:href="#FuzzyBubbles-Regular-73" x="2433.099548"/>
    </g>
   </g>
  </g>
 </g>
 <defs>
  <clipPath id="p39ebcc4e43">
   <rect x="64.35" y="28.5" width="293.535" height="296.8"/>
  </clipPath>
  <clipPath id="p558710c8fd">
   <rect x="413.505" y="28.5" width="293.535" height="296.8"/>
  </clipPath>
 </defs>
</svg>
